<?xml version="1.0" encoding="utf-8"?>
<!-- Generator: Adobe Illustrator 22.0.1, SVG Export Plug-In . SVG Version: 6.00 Build 0)  -->
<svg version="1.1" xmlns="http://www.w3.org/2000/svg" xmlns:xlink="http://www.w3.org/1999/xlink" x="0px" y="0px"
	 viewBox="0 0 158.3 164.3" enable-background="new 0 0 158.3 164.3" xml:space="preserve">
<g id="Layer_1">
</g>
<g id="lines">
</g>
<g id="circle">
</g>
<g id="Layer_3">
	<g>
		<path fill="#CB952B" d="M60.2,99.6c-1.2-1.3-4.2-0.8-4.5,1.7c-0.1,0.9-0.1,1.7-0.2,2.6c-0.3,0.3-0.5,0.6-0.6,1
			c-1.7,4.7-4.4,9.9-4.8,14.9c-0.3,3.6,0,9.6,3,12.1c0.9,0.8,1.9,0.9,3,0.4c4.4-1.9,4.5-9.2,5.2-13.2c1-5.7,3.1-12.1,1.6-17.8
			C62.5,100,61.3,99.5,60.2,99.6z M54.9,121.2c0.2,0.4,0.5,0.8,0.9,1.1c-0.2,1.2-0.5,2.4-0.8,3.4C54.7,124.4,54.8,122.8,54.9,121.2z
			"/>
		<path fill="#CB952B" d="M87.5,105.3c-0.8-2.2-4.7-1.8-4.9,1c-0.3,4.9-0.6,9.9-0.9,14.8c-0.2,4-1.1,8.4-0.5,12.4
			c0.1,0.8,1,1.6,1.7,1.7c5.1,0.9,7.3-6.9,8.6-10.6c1-3,2-6.6,1.9-9.9c-0.1-2.8-2.5-4.5-2.5-7.1C91,105.8,89,104.9,87.5,105.3z
			 M86.1,125.7c0.2-2.2,0.6-4.5,0.7-6.4c0.1-2.3,0.3-4.6,0.4-6.9c0.5,1.2,1,2.4,1.1,3.7C88.4,118.8,87.5,122.5,86.1,125.7z"/>
		<path fill="#CB952B" d="M139.4,71c-1.1-3.1-2.2-7.3-5.4-8.8c-3.5-1.7-7.1,0.4-9.3,3.1c-12.4,14.9-13.3,36.6-18.2,55.1
			c-0.3,0.5-0.6,1-0.9,1.5c0-0.3-0.1-0.6-0.1-0.9c-0.8-11-3.8-21.6-8.6-31.5c-1.4-2.9-5.7-0.4-4.3,2.5c4.6,9.6,7.5,20.1,8,30.8
			c0.1,2.1,0.6,4.9,0.1,7c-0.7,3.2-2.8,4.6-4.8,6.9c-1.6,1.9-3,4-4,6.3c-4.3-0.2-8.8,1-12.5,2.3c-0.4-0.7-1.1-1.2-2.1-1.2
			c-2.6,0.1-4.2,1-5.8,2.9c-3.1,0.2-6.1,0.4-9.2,0.4c-1.5-1.2-4.2-1.7-5.9-1.8c-0.4,0-0.9-0.1-1.4-0.1c-3.4-2.2-6.2-5.7-7.7-9.2
			c-2.5-5.4,0.3-12.5,1.9-17.9c3-9.8,7.2-19.1,11.4-28.3c0.6,0.4,1.2,0.8,1.9,1.2c0.8,4.3,3,8.5,8.1,8.3c3.2-0.2,5.4-2.5,6.9-5.4
			c0.1,0,0.1,0,0.2-0.1c1.3,1.7,3.4,2.8,5.8,2.5c3.8-0.5,5.6-3.8,6.3-7.2c2.1-1.1,4-2.5,5.7-4.1c7-6.6,11.9-19.6,7.6-29
			c-0.1-0.1-0.1-0.2-0.2-0.4c0.9-6.9,1.8-13.9,2.6-20.8c0.2-1,0.5-2.1,0.7-3.1c0.1,0,0.1,0.1,0.2,0.1c0.7,1.6,1.4,3.1,2.2,4.7
			c1.2,2.5,5.5,0.8,4.6-1.9c-0.3-1-0.7-2-1-3c3.7-3.9-0.5-16.8-2.7-19.8c-1-1.4-3.8-1.7-4.5,0.2c-1.3-1.1-3.7-0.7-4.1,1.2
			c-1.2,5.7-2.6,11.2-4.5,16.7c-2.2,3.7-3.8,7.9-5,12.2c-0.6,1-1.4,2-2.4,2.8c-4.2-1.1-8.7-1.1-13.1-0.4c-2.5-0.2-5.1-0.3-7.4,0.6
			c-0.6,0.2-1.2,0.5-1.8,0.8c-4.6-6.3-7-12.4-8.7-20c-0.1-0.5-0.3-0.8-0.6-1.1c0-0.8,0-1.6,0-2.4c0-3.2-5-3.2-5,0
			c0,12.4,0.1,24.8,0.1,37.2c-1.3,2.3-1.6,5.2-1.8,7.9c-0.6,6.8,1.4,14.3,6.2,18.8c-5.9,12.7-11.9,25.6-14.7,39.4
			c-1.3,6.2-0.9,11.1,2.8,16.3c1.3,1.8,2.7,3.5,4.2,5c-1.3,0.3-2.4,1.4-2.2,3.1c0.6,3.4,3.9,5.9,7.3,5.9c2.6,0,6.2-1.4,8-3.7
			c4.3-0.1,8.5-0.3,12.7-0.8c4.2,0.8,8.7,0.6,12.9,0.4c3.9-0.2,8.7-0.2,11.7-3c1.2-1.2,0.8-3.1-0.5-3.9c-0.7-0.5-1.4-0.9-2.2-1.2
			c0.7-1.3,1.5-2.6,2.5-3.7c0.2-0.2,0.3-0.4,0.5-0.5c0.7,0.8,1.9,1.3,3.2,0.8c12.5-5.7,15.2-20,22.5-30.3c1.2-1.7-0.5-3.5-2.2-3.8
			c-1.8-0.2-3.7-0.4-5.5-0.6c2.8-3.4,4.7-7.4,6.6-11.6c1.6-3.4,3.9-6.4,5.5-9.7c0.2,0.6,0.3,1.2,0.5,1.9c0.6,2.5,1.2,5,1.8,7.5
			c0.3,1.3,1.4,1.8,2.4,1.8c1.2,2.7,2.5,5.3,3.7,8c1.2,2.5,4.4,0.9,4.7-1.3C144.1,91.8,143,81,139.4,71z M100.5,35
			c-0.2,0.8-0.4,1.6-0.6,2.4c-0.4,0-0.7,0-1,0.2c0.7-1.7,1.3-3.5,1.9-5.2C100.7,33.3,100.6,34.2,100.5,35z M60.1,60.4
			c0.1-0.2,0.2-0.4,0.3-0.6c0.5-0.3,1.1-0.5,1.7-0.7c-0.6,0.8-1.2,1.8-1.8,3C60.1,61.3,60,60.7,60.1,60.4z M88.9,55.9
			c0,0.4-0.1,0.7-0.1,1.1c-0.6-0.7-1.3-1.3-2-1.9c0.4,0,0.8,0,1.2,0C88.3,55.4,88.6,55.6,88.9,55.9z M67.5,72
			c0.1-0.2,0.3-0.7,0.7-1.5c-0.2,1.4-0.5,3-0.9,4.5c-0.3,0.4-0.7,0.7-1.1,0.9c-0.1,0-0.2,0-0.3,0C66.4,74.5,67,73.2,67.5,72z
			 M66.5,85.3c0.2,0.2,0.5,0.3,0.8,0.5c-0.3,0-0.6,0-1-0.1c-0.1-0.1-0.1-0.1-0.2-0.2C66.2,85.5,66.4,85.4,66.5,85.3z M73.8,83.2
			c0.1,0,0.1,0,0.2,0c-1.4,1-2.9,1.8-4.5,2.2C71.1,84.8,72.5,84.1,73.8,83.2z M80.4,85.7c0.1-0.2,0.1-0.5,0.1-0.7
			c0.7-0.6,1.5-1.3,2.2-1.9c-0.6,1-1.2,2-1.7,3c-0.2-0.1-0.4-0.2-0.5-0.2C80.4,85.8,80.4,85.7,80.4,85.7z M91,71
			C90.9,71.1,90.9,71.1,91,71c0.4-1.3,0.6-2.8,0.7-4.2c0.7-0.6,1.3-1.3,1.9-2C93,67,92.1,69.1,91,71z M65.4,58
			c0.1,0,0.1,0.1,0.2,0.1c0,0,0,0,0,0C65.5,58,65.4,58,65.4,58C65.4,58,65.4,58,65.4,58z M57.5,52.8C57.5,52.8,57.5,52.8,57.5,52.8
			c0,0.1-0.1,0.1-0.1,0.2c0-0.1,0-0.2,0-0.3C57.4,52.7,57.4,52.8,57.5,52.8z M88.1,84.6c0.9-1.2,1.8-2.5,2.7-3.7c0.1,0,0.2,0,0.3,0
			c0.8-0.1,1.5-0.3,2.2-0.6c-0.5,0.5-0.9,1-1.5,1.5C90.8,82.8,89.5,83.8,88.1,84.6z M61.5,49.6c-1.5-1.7-2.4-3.9-3-6.4
			c1.2,2,2.6,3.8,4,5.6C62.2,49.1,61.8,49.4,61.5,49.6z M55.9,64.7c0,0.1,0.1,0.2,0.1,0.4c0.1,0.9,0.2,1.8,0.3,2.7
			c0.2,2.7,0,5.7-0.1,8.6C55.2,72.9,54.9,68.2,55.9,64.7z M115.8,113.2c0.2-0.8,0.3-1.6,0.5-2.4c0.9,0.1,1.9,0.1,2.8,0.2
			c-0.6,1-1.1,2-1.7,3.1C117,113.6,116.4,113.3,115.8,113.2z M134.3,71.5c0.2,0.5,0.3,0.9,0.5,1.4c-0.3-0.5-0.6-1-1-1.5
			c-0.4-0.6-1-0.9-1.6-1.1c0-0.1,0-0.1,0-0.2c-0.2-1.8-2-2.1-3.4-1.5c0,0,0,0,0,0C131.8,66,133,68.2,134.3,71.5z M105.1,133.1
			c0.4-1.1,0.6-2.3,0.7-3.5c1.3,0.6,3,0.2,3.6-1.5c0.5-1.6,1-3.1,1.6-4.7c0,0,0,0,0,0c0.5,0.1,1,0.2,1.5,0.1
			C110.5,127.2,108.2,130.5,105.1,133.1z M126.7,80.5c0.6-1.2,1.2-2.3,1.8-3.4c0.2,0.5,0.3,1,0.5,1.5
			C128.2,79.1,127.4,79.8,126.7,80.5z M136.4,89.8c0-0.1-0.1-0.3-0.1-0.4c0.7,0,1.4-0.2,1.9-0.7c0.1,1,0.2,2.1,0.2,3.2
			c-0.1-0.3-0.3-0.6-0.4-0.9C137.6,90.3,137,89.9,136.4,89.8z"/>
	</g>
</g>
</svg>
