<?xml version="1.0" encoding="utf-8"?>
<!-- Generator: Adobe Illustrator 22.0.1, SVG Export Plug-In . SVG Version: 6.00 Build 0)  -->
<svg version="1.1" xmlns="http://www.w3.org/2000/svg" xmlns:xlink="http://www.w3.org/1999/xlink" x="0px" y="0px"
	 viewBox="0 0 158.3 164.3" enable-background="new 0 0 158.3 164.3" xml:space="preserve">
<g id="Layer_1">
	<path fill="#3A6DB5" d="M109.6,82.1L134,57.7L79.2,2.9L24.3,57.7l24.4,24.4l-24.4,24.4l45.3,45.3l9.5,9.5l9.2-9.2l45.7-45.7
		L109.6,82.1z M125.6,106.6l-22,22l-20.2-20.2l22-22L125.6,106.6z M79.2,104.2L79.2,104.2l-22-22l22-22l22,22L79.2,104.2L79.2,104.2
		z M58.9,132.8l20.2-20.2l20.2,20.2L79.2,153L58.9,132.8z M32.7,57.7l46.5-46.5l46.5,46.5l-20.2,20.2L79.2,51.7L52.9,77.9L32.7,57.7
		z M52.9,86.3l22,22l-20.2,20.2l-22-22L52.9,86.3z"/>
</g>
<g id="lines">
</g>
<g id="circle">
</g>
<g id="Layer_3">
</g>
</svg>
