<?xml version="1.0" encoding="utf-8"?>
<!-- Generator: Adobe Illustrator 22.0.1, SVG Export Plug-In . SVG Version: 6.00 Build 0)  -->
<svg version="1.1" xmlns="http://www.w3.org/2000/svg" xmlns:xlink="http://www.w3.org/1999/xlink" x="0px" y="0px"
	 viewBox="0 0 158.3 164.3" enable-background="new 0 0 158.3 164.3" xml:space="preserve">
<g id="Layer_1">
</g>
<g id="lines">
</g>
<g id="circle">
</g>
<g id="Layer_3">
	<path fill="#B3C5BD" d="M112.5,69.4c1.1,0.3,2.2,0.6,3.4,0.6c0.9,0.5,1.8,0.3,2.7,0c0.5,0.2,1,0.5,1.6,0.2c0.2,0.1,0.3,0.1,0.4,0
		c0.6,0,1.2,0.1,1.7-0.2c0.8,0.2,1.4-0.3,2.2-0.3c0,0,0,0,0,0c0.4,0.2,0.8,0.2,1.2,0.1c4.2-0.7,8.4-1.6,12.4-3.2
		c1.1-0.5,2.2-1,3-1.8c0.8-0.2,1.5-0.5,2.2-1.1c-0.9-0.2-1.6-0.3-2.3-0.4c0,0,0,0,0,0c0,0,0,0,0,0c-1.2-0.3-2.4-0.2-3.6-0.1
		c-0.6,0-1.1,0.2-1.7,0.1c-3.7-0.4-7.4-0.8-11.1-1.8c-0.3-0.1-0.6,0-0.9,0l0,0c0,0,0,0,0,0c-0.9,0-1.8-0.1-2.6-0.1
		c-0.2,0-0.4,0-0.5,0.1c-0.1-0.1-0.3-0.1-0.5-0.1c0,0,0,0,0,0c-0.3-0.1-0.5-0.1-0.7,0.1c0,0,0,0,0,0c-0.8-0.1-1.5,0-2.1,0.3l0,0
		c0,0,0,0,0,0c-0.2-0.1-0.4-0.1-0.5,0.2c0,0,0,0,0,0c-0.2,0-0.4,0-0.5,0.1c0,0,0,0,0,0c0,0,0,0,0,0c-1.2,0.1-2.4,0.2-3.4,0.7
		c-1.1,0.1-2.2,0.1-3,0.9l0,0c-0.3,0-0.5,0.1-0.6,0.3c0,0,0.1,0,0.1,0.1c0,0,0,0,0,0l-0.1-0.1c-0.3,0-0.5,0.1-0.6,0.3
		c-0.7,0.1-1.3,0.4-1.9,0.8l0,0l0,0c-0.3-0.1-0.5,0-0.6,0.2c-0.3,0-0.5,0.1-0.6,0.3c-0.5,0.1-1.1,0.2-1.6,0.4c-1.1-0.4-2.2,0-3.3,0
		c-0.2,0-0.3,0.3-0.4,0.5c0,0,0.2,0.3,0.3,0.3c1.2,0.3,2.5,0.5,3.8,0.6c0.1,0,0.1-0.1,0.2-0.1c0,0,0,0,0,0l0.1,0
		C107.1,67.9,109.8,68.7,112.5,69.4z M112.4,63.4C112.4,63.4,112.4,63.4,112.4,63.4C112.4,63.4,112.4,63.4,112.4,63.4
		C112.4,63.4,112.4,63.4,112.4,63.4z M109,64.2C109,64.2,109,64.2,109,64.2C109,64.2,109,64.2,109,64.2L109,64.2
		C109,64.2,109,64.2,109,64.2C109,64.2,109,64.2,109,64.2C109,64.2,109,64.2,109,64.2C109,64.2,108.9,64.2,109,64.2
		C109,64.2,109,64.2,109,64.2z"/>
	<path fill="#B3C5BD" d="M115,108.2c-1.2,0-2.4,0.1-3.6,0.1c0,0,0,0,0,0c-1.5,0.1-2.9-0.7-4.4-1c-1.2-0.7-2.3-1.4-3.5-2.1
		c0,0,0,0,0,0c-0.3-0.1-0.5-0.3-0.8-0.4c0,0,0,0,0,0c-1.2-1.3-2.6-2.3-4.3-2.9c-1-1.2-2.6-1.7-3.8-2.8c-0.1-0.3-0.3-0.5-0.6-0.7
		c-3.6-2.2-7.6-3.1-11.7-3.7c-2.4-0.4-4.9-0.3-7.3-0.1c-2.8,0.2-5.6,0.8-8.1,2.2c0,0,0,0,0,0l0,0c-0.2,0.1-0.4,0.2-0.6,0.3l0,0
		c-1,0.4-2.1,0.4-3,1c-0.3-0.1-0.5,0-0.6,0.3l0,0c-0.3-0.1-0.5,0-0.6,0.2l0,0c-0.6,0.3-1.4,0.2-1.9,0.7c-1.1,0.3-2,0.9-3,1.5l-0.1,0
		c-0.3-0.1-0.5,0-0.6,0.2l0,0c-0.2,0.1-0.4,0.1-0.7,0.2c-2.9,0.7-4.9,2.7-7.5,4.2c0.1-0.6,0.2-1,0.2-1.3c0,0,0,0,0,0c0,0,0,0,0,0
		c0.1-0.1,0.1-0.2,0.2-0.4l0,0c0,0,0,0,0,0c0.5-0.2,0.7-0.6,0.8-1.1c0.8-1.9,1.8-3.5,3.2-5c1.5-1.7,2.9-3.4,4.2-5.2
		c0.7-0.9,1.5-1.7,2.3-2.6c1-1,2.1-2,3.2-3.1c0.6-0.3,1-0.8,1.2-1.5c0.4-0.1,0.6-0.4,0.8-0.7l0,0c0.3,0.1,0.5,0,0.6-0.3c0,0,0,0,0,0
		c0,0,0,0,0,0l0,0c0,0,0,0,0,0c0,0,0,0,0,0c1.1-0.8,2.3-1.6,3.7-2c0.6-0.2,1-0.6,1.1-1.1c0,0,0,0,0,0c0,0,0,0,0,0l0,0
		c0.6-0.3,1.3-0.5,1.9-0.8l0,0c0,0,0,0,0,0c0.2-0.1,0.5-0.2,0.6-0.4c0.6-1.4,1.9-2.1,3.2-2.9c0.5-0.3,1.1-0.6,1.7-0.9
		c1.2-0.7,2.5-1.4,3.6-2.2c0.8-0.6,1.6-1.1,2.7-1.4c0,0,0,0,0,0c0.9-0.3,1.7-0.5,2.5-1.1c0,0,0,0,0,0c0.8-0.2,1.3-0.9,2-1.3
		c1.5-0.5,3-1.1,4.4-1.9l0,0l0,0c1.2-0.1,2.1-0.7,3-1.3c1.2-0.7,2.3-1.6,3.6-2.1c4.1-1.6,7.6-4.1,11.1-6.6c0,0,0,0,0,0c0,0,0,0,0,0
		c0.1-0.1,0.2-0.2,0.3-0.3c0,0,0,0,0,0c0.3-0.1,0.6-0.2,1-0.2c0.3,0.1,0.5,0.1,0.6-0.2l0,0c0.3,0,0.5,0,0.6-0.3c0,0,0,0,0,0l0,0
		c0.3,0,0.4-0.1,0.5-0.3l0.1,0c0.3,0,0.5-0.1,0.6-0.3c0,0,0,0,0,0c0,0,0,0,0,0c1.2-0.3,2.4-0.8,3.3-1.7c0,0,0,0,0,0l0,0
		c0.5,0,0.9-0.3,1.3-0.5c0,0,0,0,0,0c0.5,0,0.7-0.3,1-0.5c0.6-0.5,1.1-1,1.7-1.5c0.9-0.1,1.5-0.7,2-1.3c0.4-0.1,0.7-0.3,0.7-0.7
		c0.6-0.4,1.3-0.7,1.6-1.3c0,0,0,0,0,0l0,0c0.5-0.3,0.7-0.7,0.9-1.2c0.6-0.2,0.9-0.6,0.9-1.1c0.4-0.2,0.6-0.4,0.7-0.8
		c0.1-0.1,0.1-0.3,0.2-0.4c0.3-0.4,0.6-0.8,0.9-1.2c0.5-0.1,0.6-0.6,0.8-0.9c0.2-0.4,0.4-0.8,0.8-1c0.5,0,0.7-0.3,0.8-0.7
		c0.3-0.9,0.7-1.9,1.7-2.5c0.3-0.2,0.5-0.6,0.7-0.9c0.7-1.1,1.4-2.2,2.2-3.3c0.9-1.3,1.5-2.7,2-4.2c0.7-2.2,1.4-4.4,2.5-6.5
		c0.2-0.4,0.2-0.9,0.1-1.4c-0.1-0.6-0.6-0.8-1-0.4c-1,0.9-1.9,1.9-2.8,2.8c-1.7,1.6-4,2.5-5.6,4.3c-1.5,0.6-2.6,1.7-3.8,2.8
		c-0.8,0.7-1.6,1.5-2.3,2.3c-1.1,1.1-2.5,1.9-3.3,3.2c-0.3,0.4-0.9,0.5-1,1c-0.4,0.3-0.8,0.5-1.1,0.8c-2,2-3.7,4.3-5.2,6.6
		c0,0,0,0,0,0c-0.4,0.4-0.7,0.8-0.8,1.3c-0.6,1.1-1.1,2.3-1.7,3.4c-0.5,0.9-0.9,1.9-1.1,2.9c-0.1,0.3-0.3,0.6-0.4,0.8
		c-0.6,0.2-0.8,0.6-0.8,1.2c-0.1,0.1-0.2,0.3-0.1,0.4c-0.1,0.1-0.2,0.3-0.2,0.4c-0.2,0.1-0.4,0.2-0.5,0.3c-0.3,0-0.6,0.2-0.8,0.5
		c-1.3,1.2-2.7,2.4-4.5,3.1c-3.6,1.4-6.8,3.4-10.1,5.3l0,0c-0.2,0.1-0.4,0.2-0.6,0.2c0,0,0,0,0,0c-0.7,0.3-1.5,0.6-2.3,0.9
		c-0.3,0.1-0.5-0.1-0.6-0.3c0,0,0,0,0,0c0.1-0.1,0.1-0.3,0.2-0.4l0,0l0,0c0,0,0,0,0,0c0.6-0.2,0.8-0.8,0.9-1.3
		c0.7-1.9,1.3-3.8,2-5.7c0.4-1.2,0.8-2.3,1.7-3.2c1.2-1.5,2.4-3.1,3.6-4.6l0,0c0.5-1,1-2,1.5-2.9c0.3-0.4,0.5-0.8,0.5-1.2l0,0
		c0,0,0,0,0,0c0.1-0.3,0.3-0.5,0.4-0.8c0,0,0,0,0,0c0,0,0,0,0,0c1.1-1.4,2-4,2.1-6.2c0.8-1.8,0.9-3.8,1.3-5.8c0.2-1.5,0.2-3,0.3-4.5
		c0,0,0,0,0,0c0-0.3,0.1-0.6,0.1-0.9c0,0,0,0,0,0l0,0c0-0.4,0.1-0.7,0.1-1.1c0-1.7,0.1-3.5,0.1-5.2c0.2-1.3,0.4-2.6,0.6-3.8
		c0-0.3-0.2-0.6-0.4-0.8c-0.2-0.2-0.7-0.2-0.9,0c-1.2,1-2.6,1.8-3.1,3.4c0,0,0,0,0,0c-0.6,0.8-1.2,1.5-1.4,2.5c0,0,0,0,0,0
		c-0.3,0.3-0.7,0.5-0.8,0.8c-0.9,2.1-2.2,4.1-3.2,6.1c-0.1,0.3-0.2,0.5-0.4,0.8c-0.4,0.1-0.6,0.4-0.7,0.8c0,0,0,0,0,0c0,0,0,0,0,0
		c-0.7,1.5-1.2,3.1-1.7,4.7c-0.1,0.4-0.2,0.7,0,1.1c0.1,0,0.1,0,0.2,0c0,0,0,0.1,0,0.1c0,0,0,0,0,0c0,0,0,0,0,0l-0.2-0.1
		c-0.7,1.6-1,3.3-1.1,5c-0.2,0.3-0.1,0.7,0,1.1c0,0,0,0,0,0c-0.1,0.3-0.1,0.6-0.2,0.8c-0.2,0.5-0.4,1-0.2,1.5c0,0,0,0,0,0
		c-0.1,0.3-0.1,0.5-0.2,0.8c-0.3,0.5-0.4,1-0.1,1.5c0,0,0,0,0,0c-0.1,0.1-0.1,0.2-0.1,0.4c-0.5,2.3,0.1,4.6,0.7,6.8c0,0,0,0,0,0l0,0
		c-0.2,1-0.2,2-0.4,3c-0.3,1.8-1.1,3.3-1.7,4.9c0,0,0,0,0,0c0,0.2-0.1,0.3-0.1,0.5c0,0,0,0,0,0c0,0,0,0,0,0
		c-0.1,0.2-0.3,0.5-0.4,0.7c-0.2,0.1-0.4,0.3-0.6,0.4c0,0,0,0,0,0c0,0,0,0,0,0c-0.9,1-2.2,1.6-2.7,2.9c-0.3,0.2-0.5,0.5-0.8,0.7
		c-1,0.3-1.7,1.1-2.6,1.5c0,0,0,0,0,0c-0.8,0.2-1.5,0.5-2.2,1c-2.3,1.6-4.9,2.9-7.4,4.3c-1.2,0.6-2.3,1.4-3.4,2.1c0,0,0,0,0,0
		c-0.1,0.1-0.2,0.2-0.2,0.3c-0.2,0.1-0.4,0.2-0.6,0.3c-0.3-0.6,0-1.2,0.2-1.8c0.5-1.4,1.2-2.8,1.4-4.3c0.2-1.4,0.6-2.6,0.9-4
		c0,0,0,0,0,0c0,0,0,0,0,0c1.8-1.4,3.1-3.2,3.6-5.5c1-1.1,1.5-2.4,1.8-3.8c0-0.2,0.1-0.3,0.1-0.5c0.7-0.9,0.9-2,1.1-3
		c0.1-0.3,0.2-0.6,0.3-0.9c0-0.2,0.1-0.3,0.1-0.5c0.2-0.5,0.3-1,0.2-1.6c0,0,0,0,0,0c0.1-0.1,0.1-0.2,0-0.3c0.1-1.3,0.4-2.7-0.3-4
		c0,0,0,0,0,0l0,0c-0.2-1.8-0.8-3.6-1.3-5.4c0,0,0,0,0,0l0,0c-0.2-1.5-1.3-2.6-1.7-4.1c0-0.9-0.6-1.7-1.1-2.5c0,0,0,0,0,0
		c0.1-0.6-0.1-1.1-0.6-1.6c-0.6-1.9-1.2-3.7-2.3-5.4c-0.1-0.2-0.3-0.4-0.6-0.3c-0.2,0.1-0.4,0.3-0.4,0.4c-0.6,1.6-0.5,3.3-0.5,5
		c-0.1,0.2-0.1,0.5,0,0.8c-0.4,2.7-1.2,5.4-2.2,7.9c-0.1,0.3,0,0.7,0,1.1c0.1,0,0.1,0,0.2,0c0,0,0,0,0,0.1c0,0,0,0,0,0c0,0,0,0,0,0
		l-0.1,0c-0.2,0.6-0.4,1.2-0.6,1.7c0,0,0,0,0,0c-0.4,1.1-0.9,2.1-0.7,3.4c0,0,0,0,0,0c-0.1,0.1-0.1,0.2,0,0.3c0,0.1-0.1,0.3-0.1,0.4
		c-0.6,1.1-0.5,2.3-0.2,3.4l0,0c-0.1,1.5-0.2,3.1,0.5,4.6c0.3,1.6,1.2,3,1.8,4.5c0,0.2,0.1,0.3,0.2,0.5l0,0c0,0,0,0,0,0
		c-0.1,1,0.8,1.2,1.5,1.5c0.3,0.4,0.6,0.8,0.8,1.2c0,0.6,0.1,1.2-0.2,1.8c-0.2,1.2-0.5,2.4-0.6,3.6c-0.2,1.8-0.7,3.4-1.8,4.9
		c-0.3,0.4-0.4,1-0.6,1.5c-0.5,0.9-1.1,1.8-1.6,2.6c0,0,0,0,0,0c-0.5,0.3-1,0.7-1.2,1.2c-0.1,0.1-0.2,0.2-0.3,0.3c0,0,0,0,0,0
		c0,0,0,0,0,0c-0.4,0.1-0.6,0.4-0.8,0.7c0,0,0,0,0,0c-0.8,0.4-1.3,1.1-1.7,1.9c0,0,0,0,0,0c-1.8,0.9-2.8,2.6-4.2,4
		c-2.4,2.3-4.5,4.9-6.7,7.4c-0.3,0.3-0.5,0.8-1,0.7c-0.3-0.5-0.3-1.1-0.2-1.6c0.4-0.9,0.6-1.9,0.6-2.9c0-1.6,0.2-3.2,0.3-4.8
		c0-0.5,0.1-0.9,0.5-1.2c1.2-0.7,1.1-1.7,0.6-2.7c-0.1-0.2-0.1-0.4-0.2-0.6c0.1-0.4,0.3-0.7,0.3-1.1c-0.1-1.3,0.4-2.3,1.1-3.4
		c1-1.7,1.2-3.5,1.1-5.5c0,0,0,0,0,0c0.8-3.7,1.1-7.4,0.3-11.2c0,0,0,0,0,0c0.2-1,0.3-2-0.1-3c0.1-0.5,0.4-1,0-1.5c0,0,0,0,0,0
		c0.1-0.1,0.1-0.3,0.1-0.4c0.1-1,0.5-2.1,0.1-3.1c-0.6-1.3-0.6-2.7-0.7-4c0.2-0.3,0.2-0.7-0.1-1c0,0,0,0,0,0
		c0.1-0.1,0.1-0.3,0.1-0.4c0.4-0.8,0.2-1.5-0.2-2.2c-0.1-0.1-0.2-0.2-0.4-0.3c-0.3,0-0.3,0.2-0.4,0.4c-0.2,0.8-0.5,1.6-0.7,2.4
		c0,0,0,0,0,0l0,0c0,0,0,0,0,0c0,0,0,0,0,0l0,0c-0.4,0.1-0.6,0.4-0.8,0.8c-0.2,0.6-0.4,1.1-0.6,1.7c0,0,0,0,0,0c0,0,0,0,0,0
		c-0.2,0.4-0.3,0.9-0.5,1.3l0,0c-0.4,0.6-0.9,1.1-1,1.7c-0.3,1.1-1.2,2-0.8,3.2c0,0,0,0,0,0c-0.2,0.2-0.5,0.5-0.5,0.7
		c-0.1,1.2-0.5,2.4-0.8,3.5c-0.1,0.5-0.3,1-0.1,1.6c0,0,0,0,0,0c-0.6,3.1-0.7,6.2-0.1,9.3c0,0.4,0,0.8,0.1,1.1
		c0.5,2.1,1,4.2,1.1,6.4c0,0.9,0.3,1.8,1,2.6c0.1,0.3,0.2,0.7,0.2,1c-0.1,0.3-0.1,0.5,0.2,0.7l0,0c0.2,0.6,0.4,1.3,0.6,1.9
		c-0.2,2-0.1,3.9-0.4,5.9c-0.1,0.9-0.7,1.9-0.2,2.9c0,0,0,0,0,0c-0.3,1.5-0.7,3.1-1,4.6c-0.6,1.7-1.3,3.4-1.9,5.1
		c-0.6,0.4-0.8,1.1-1.1,1.7c-0.7,1.5-1.4,3-2.1,4.6c-0.4,0.8-0.6,0.8-1.6,0c-1.5-2.5-3-5.1-4-7.8c-0.1-0.2-0.1-0.5-0.2-0.7
		c0,0,0,0,0,0c0.1-0.1,0.1-0.2,0-0.3c0.1-0.3,0.1-0.5-0.1-0.8c0,0,0,0,0,0c0.2-0.2,0.4-0.4,0.6-0.7c0.5,0,0.7-0.3,0.9-0.7
		c0.3-1,0.5-2.1,0.4-3.2c0.1-0.8,0.3-1.6,0-2.5c0-0.2,0-0.3,0-0.5c0.1-0.2,0.1-0.4-0.1-0.6c0,0,0,0,0,0l0,0c0,0,0,0,0,0c0,0,0,0,0,0
		c0.4-0.8,0.1-1.7-0.2-2.5c0.1-0.3,0-0.6-0.2-0.8c0,0.1,0,0.3,0,0.4c0-0.1,0-0.2,0-0.4l0.1-0.1l-0.1-0.1c0.1-0.3,0-0.5-0.2-0.6
		c0.1-0.6-0.1-1.1-0.5-1.6c0,0,0,0,0,0c0,0,0,0,0,0c-0.5-1.4-0.8-2.8-1.8-4l0,0l0,0c-0.8-2.5-1.7-4.9-3.3-7.1
		c-0.1-1.3-0.9-2.3-1.1-3.6c0-0.2-0.2-0.5-0.5-0.4c-0.1,0-0.3,0.2-0.3,0.3C30.5,74.6,30,75.7,30,77c0,1.3-0.5,2.7-0.2,4c0,0,0,0,0,0
		c0,0,0,0,0,0c-0.1,0.4-0.1,0.8-0.1,1.1c0,0.8-0.4,1.5-0.1,2.3c0,0,0,0,0,0c-0.3,1-0.3,2,0.1,3c-0.3,2.6,0,5.2,0.8,7.8
		c-0.1,1.4,0.4,2.7,1.3,3.8c0.1,0.2,0.2,0.4,0.3,0.7c0,0,0,0,0,0c0,0.1,0,0.3,0.1,0.4c-0.1,0.2,0,0.3,0.2,0.4c0,0,0,0,0,0l0,0
		c0.2,0.3,0.5,0.6,0.7,0.9c0.2,0.6,0.6,1,1.1,1.4l0,0c0.2,0.4,0.4,0.6,0.9,0.7l0,0.1c0,0,0,0,0,0c0.1,0.1,0.1,0.3,0.3,0.4
		c1.8,0.6,2.5,2,3.1,3.5c0.6,1.6,1.5,3.1,2.6,4.5c0,0,0,0,0,0c0.1,0.6,0.1,1.1,0.5,1.6l0,0c0.3,1.6-0.2,3.2-0.6,4.7c0,0,0,0,0,0
		c-1.4,2.9-1.5,6.1-2.5,9.1c-0.1,0.3,0,0.6,0.1,0.9c0,0,0,0,0,0c-0.3,1-0.9,2-1,3.1c0,0,0,0,0,0c0,0,0,0,0,0c-0.8,1.4-0.7,3-1.2,4.4
		c0,0,0,0,0,0c0,0,0,0,0,0c-0.7,0.4-0.8,1.1-1,1.7c-0.8,1.8-0.8,3.9-2.4,5.3c-0.2,0.1-0.2,0.4-0.3,0.6c-0.5,1.4-1.3,2.8-1.9,4.2
		c-1,2.2-2.3,4.3-3.1,6.7c-1.2,1.1-1.2,2.8-2.1,4c-0.1,0.1,0,0.3,0.1,0.4c0.1,0.1,0.3,0.2,0.4,0.1c1.2-0.2,1.5-1.1,1.8-1.9
		c0,0,0,0,0,0c0.2-0.2,0.5-0.4,0.7-0.6c0.9-1.7,2.1-3.1,3-4.8c1.3-2.4,2.3-4.9,3.4-7.4c0.7-2,1.7-3.9,2.4-5.9
		c0.3-0.9,0.3-1.8,0.7-2.6c0.9-2.2,1.6-4.5,2.3-6.7c0,0,0,0,0,0c0,0,0,0,0,0c0.1-0.1,0.2-0.2,0.2-0.3c0.7-0.5,1.4-1,2-1.6
		c0.6-0.5,1.2-1,1.9-1.3c1.9-0.7,3.7-1.7,5.7-2.1c0,0,0,0,0,0c0,0,0,0,0,0c0.1,0.1,0.3,0.1,0.5,0.1c0,0,0,0,0,0c0,0,0,0,0,0
		c1.3,0.7,2.8,1.1,4.2,1.5c0.3,0.1,0.6,0.2,0.9,0.3c0.3,0.1,0.6,0.2,0.9,0.4c0.2,0.1,0.3,0.1,0.5,0.2l0.1,0.2l0.2,0.1
		c0.5,0.8,1.2,0.9,2,0.6l0,0c0,0,0,0,0,0c0.3,0.1,0.6,0.1,0.9,0.2c0.2,0,0.5,0.1,0.7,0c1.7-0.1,3.4-0.2,5.1-0.2
		c2.1,0.1,4.3,0,6.2-0.9c0,0,0,0,0,0c0.7,0.1,1.2-0.1,1.7-0.5c1.5-0.4,2.5-1.4,3.9-1.9c0.9,0.1,1.7-0.1,2.3-0.6c0,0,0,0,0,0
		c1.2,0.1,2.1-0.5,3-1l0,0l0,0c0.9,0.2,1.6-0.1,2.3-0.5c0,0,0,0,0,0c1,0,1.9-0.3,2.8-0.6c0,0,0,0,0,0c0.3,0.1,0.7,0.1,1,0.2
		c0.2,0,0.4-0.1,0.5-0.2c1.5-0.2,2.5-1.2,3.8-1.7c1.5,0,2.9-0.2,4.2-0.8c0.6-0.3,1.2-0.6,1.4-1.3c-0.5-0.4-1-0.3-1.5-0.2
		c-1.6,0.2-3.2,0.1-4.8-0.2c-0.8-0.2-1.8-0.4-2.6-0.1c-0.2,0-0.4,0-0.5,0c-0.3-0.2-0.7-0.2-1-0.1c0,0,0,0,0,0
		c-1.5-0.4-3-0.6-4.5-0.6c-0.3-0.1-0.6-0.1-1-0.2c0,0,0,0,0,0l0,0c-1.7-0.3-3.3-0.5-5-0.8c-2.3-1.2-4.9-1.2-7.4-2
		c-0.8-0.2-1.6-0.3-2.4-0.5c-0.6-0.2-1.1-0.1-1.6,0.2c0,0,0,0,0,0c-0.7,0-1.5-0.1-2.2,0.4c0,0,0,0,0,0c-0.5,0-0.9,0.1-1.2,0.4
		c0,0,0,0,0,0c-0.2,0-0.3,0-0.5,0c-0.2,0.1-0.4,0.2-0.7,0.2c0.2-0.1,0.5-0.1,0.7-0.2c-0.3-0.1-0.5,0-0.7,0.2c0,0,0,0,0,0
		c-1.5,0.3-2.8,0.9-4.1,1.6c-0.1,0-0.2,0.1-0.2,0.2c-0.3,0-0.5,0-0.6,0.2c-0.3,0-0.5,0.1-0.7,0.4l0,0c-0.3,0-0.5,0.1-0.5,0.4l0,0
		c-0.7,0.1-0.9,0.5-0.9,1.1c-0.5,0.7-0.9,1.3-1.8,1.7c-0.7,0.3-1.4,0.7-1.5,1.5c-1.2,0.6-2.5,1.1-3.7,1.7c-2.1,0.5-3.9,1.4-5.6,2.6
		c-0.4,0.3-0.9,0.7-1.4,0.8c-0.8-0.4-0.8-0.9-0.5-1.5c0.7-2,1.4-4,2.1-6c0.2-0.7,0.6-1.4,0.3-2.2c0-0.1,0-0.3,0-0.4
		c0.2-0.4,0.2-0.7,0-1.1c0,0,0,0,0,0c0.1-0.1,0.1-0.2,0.1-0.3c0.8-0.5,0.9-1.3,1.2-2.1c0,0,0,0,0,0c0,0,0,0,0,0
		c0.2-0.4,0.4-0.8,0.5-1.2c0,0,0,0,0,0c0.7-0.3,0.9-1,1-1.7c0,0,0,0,0,0c0.5-0.4,0.9-0.9,1.2-1.5c1.5-1.6,3.3-3,5.2-4.3
		c1.5-0.9,3-1.8,4.9-1.3c0.1,0,0.1-0.1,0.2-0.1c0,0,0,0,0,0c0,0,0,0,0,0c0.4-0.2,0.9-0.4,1.3-0.6c0.2,0.1,0.3,0.1,0.5,0
		c0.3,0.1,0.5,0.1,0.6-0.1c0.4,0.2,0.8,0.2,1.1-0.1c0.3,0.1,0.5,0,0.6-0.2c0.5,0.2,1.1,0.4,1.6,0.5c0.5,0.2,0.9,0.3,1.4,0
		c0,0,0,0,0,0c0,0,0,0,0,0c0.7,0,1.3,0,2,0.1c1.6,0.4,3.1-0.1,4.7,0.1c0,0,0,0,0,0c0.6,0.3,1.3,0.3,1.9,0.3c0.9,0,1.8,0.2,2.7,0.3
		l0,0c0.5,0.2,1,0.4,1.5,0.2l0.2,0.1c0,0,0.2,0,0.2,0c0,0,0,0,0,0c0,0,0,0,0,0c0.8,0.8,1.8,1.1,2.8,1.4l0,0c1.2,1.2,2.9,1.7,4.2,2.8
		c1.5,0.2,2.8,0.7,4,1.5c0.2,0.1,0.5,0.2,0.7,0.2c0.8,0,1.6,0.2,2.4,0.5c0.7,0.2,1.4,0.4,2.2,0.2l0,0l0,0c0.7,0.3,1.4,0.1,2,0.2l0,0
		c0.4,0.2,0.7,0.2,1.1,0c1.4,0.5,2.8,1,4.4,1c0.5,1,0.5,1,1.4,0.5l0,0l0,0c0.2-0.1,0.5-0.1,0.7-0.2c0,0,0,0,0,0
		c0.3,0,0.6,0.1,0.9,0.1c0,0,0,0,0,0l0,0c0.2,0,0.4-0.1,0.6-0.1c1.2,0.5,2.4,0.8,3.7,0.1c0.4-0.2,1.1-0.2,1.6-0.2
		c0.5-0.1,0.9-0.2,1.3-0.5c1.2-0.2,2.3-0.8,3.5-0.8c0.3,0,0.5-0.3,0.6-0.6C115.8,108.6,115.4,108.2,115,108.2z M123.3,41.7
		C123.3,41.7,123.3,41.7,123.3,41.7C123.3,41.7,123.3,41.7,123.3,41.7C123.3,41.7,123.3,41.7,123.3,41.7z M121.3,49.1
		c0.1,0,0.1,0.1,0.2,0.1C121.3,49.2,121.3,49.2,121.3,49.1C121.2,49.1,121.2,49.1,121.3,49.1z M123.6,45.2
		C123.6,45.2,123.6,45.2,123.6,45.2C123.6,45.2,123.6,45.3,123.6,45.2C123.6,45.3,123.6,45.3,123.6,45.2
		C123.6,45.2,123.6,45.2,123.6,45.2z M120.5,51C120.5,51,120.5,51,120.5,51C120.5,51,120.5,51,120.5,51C120.5,51,120.5,51,120.5,51z
		 M123.4,45.7C123.4,45.7,123.4,45.7,123.4,45.7C123.4,45.7,123.4,45.7,123.4,45.7C123.4,45.7,123.4,45.7,123.4,45.7L123.4,45.7
		L123.4,45.7L123.4,45.7C123.4,45.7,123.4,45.7,123.4,45.7C123.4,45.7,123.4,45.7,123.4,45.7C123.4,45.7,123.4,45.7,123.4,45.7z
		 M98.5,44c0.1-0.1,0.1-0.1,0.2-0.2c0.1,0.1,0.1,0.2,0.2,0.3C98.8,44.2,98.7,44.1,98.5,44z M73.5,54.2
		C73.5,54.2,73.5,54.2,73.5,54.2C73.5,54.2,73.5,54.2,73.5,54.2C73.5,54.2,73.5,54.2,73.5,54.2z M76.5,52.8
		C76.5,52.8,76.5,52.8,76.5,52.8C76.5,52.9,76.6,52.9,76.5,52.8C76.6,52.9,76.5,52.9,76.5,52.8z M78.2,51.2
		C78.2,51.2,78.2,51.2,78.2,51.2C78.2,51.1,78.2,51.1,78.2,51.2C78.2,51.1,78.2,51.2,78.2,51.2z M67.4,59.4
		C67.5,59.4,67.5,59.4,67.4,59.4C67.5,59.4,67.5,59.4,67.4,59.4C67.5,59.4,67.5,59.4,67.4,59.4z M49.2,67.7L49.2,67.7
		C49.2,67.7,49.2,67.7,49.2,67.7C49.2,67.7,49.2,67.7,49.2,67.7C49.2,67.7,49.2,67.7,49.2,67.7C49.2,67.7,49.2,67.7,49.2,67.7
		C49.2,67.7,49.2,67.7,49.2,67.7C49.2,67.7,49.2,67.7,49.2,67.7C49.2,67.7,49.2,67.7,49.2,67.7C49.2,67.7,49.2,67.7,49.2,67.7z
		 M31.7,87.6L31.7,87.6L31.7,87.6C31.7,87.6,31.7,87.6,31.7,87.6C31.7,87.6,31.7,87.7,31.7,87.6C31.7,87.7,31.7,87.6,31.7,87.6
		C31.7,87.6,31.7,87.6,31.7,87.6z M30.5,86.7c0,0.1,0.1,0.2,0.1,0.3c0,0,0,0.1,0,0.1c0,0,0,0,0,0C30.6,86.9,30.5,86.8,30.5,86.7z
		 M73.2,115C73.3,115,73.3,115,73.2,115C73.3,115,73.2,115,73.2,115L73.2,115L73.2,115C73.2,115,73.2,115,73.2,115z M89.2,120.2
		C89.2,120.1,89.3,120.1,89.2,120.2C89.3,120.1,89.3,120.1,89.2,120.2C89.3,120.2,89.3,120.2,89.2,120.2
		C89.2,120.2,89.2,120.2,89.2,120.2z M68.5,117.7C68.5,117.7,68.6,117.7,68.5,117.7c0.2,0,0.3,0.1,0.4,0.1
		C68.8,117.8,68.6,117.8,68.5,117.7C68.5,117.7,68.5,117.7,68.5,117.7C68.5,117.7,68.5,117.7,68.5,117.7z M68.1,117.7
		C68.1,117.7,68.1,117.7,68.1,117.7C68.1,117.7,68.1,117.7,68.1,117.7C68.1,117.7,68.1,117.7,68.1,117.7z M75.4,120.7
		C75.4,120.7,75.4,120.7,75.4,120.7C75.4,120.7,75.4,120.7,75.4,120.7C75.4,120.7,75.4,120.7,75.4,120.7z M42.1,113.1
		c-0.2,0.2-0.4,0.4-0.6,0.6C41.6,113.4,41.8,113.1,42.1,113.1z M94.4,102.8C94.4,102.7,94.3,102.7,94.4,102.8
		C94.3,102.7,94.4,102.7,94.4,102.8C94.4,102.7,94.4,102.8,94.4,102.8z M80.3,101C80.3,101,80.3,101,80.3,101
		C80.3,101,80.3,101,80.3,101C80.3,101,80.3,101,80.3,101z M99.5,104.8c0.1,0.1,0.2,0.2,0.2,0.2C99.7,105,99.6,104.9,99.5,104.8z
		 M67.8,97.4C67.8,97.4,67.8,97.4,67.8,97.4L67.8,97.4C67.8,97.4,67.8,97.4,67.8,97.4C67.8,97.4,67.8,97.4,67.8,97.4
		C67.8,97.4,67.8,97.4,67.8,97.4c-0.1,0-0.1,0.1-0.2,0.1c0,0,0-0.1,0.1-0.1C67.7,97.3,67.7,97.4,67.8,97.4z M99.7,109.9
		C99.8,109.9,99.8,109.9,99.7,109.9c0.1-0.1,0.1-0.1,0.1-0.1c0.1,0.1,0.1,0.1,0.2,0.2C99.9,110,99.8,109.9,99.7,109.9z M104.4,110.3
		C104.4,110.3,104.4,110.3,104.4,110.3C104.4,110.3,104.4,110.3,104.4,110.3C104.4,110.3,104.4,110.3,104.4,110.3
		C104.4,110.3,104.4,110.3,104.4,110.3C104.4,110.3,104.4,110.3,104.4,110.3C104.4,110.3,104.4,110.3,104.4,110.3z"/>
	<path fill="#B3C5BD" d="M136.7,88.3c-0.6-0.3-1.2-0.6-1.8-0.3c0,0,0,0,0,0c-0.7-0.2-1.4-0.4-1.9-0.9c-0.3-0.2-0.6-0.2-0.9-0.1
		c0,0,0,0,0,0c-1.3-0.4-2.6-0.9-3.9-1.3c-0.5-0.2-0.9-0.3-1.4-0.1l0,0c0,0,0,0,0,0l0,0c-0.1-0.1-0.3-0.1-0.5-0.1
		c-0.2-0.1-0.3-0.1-0.5-0.2c0,0,0,0,0,0c-0.5-0.2-0.9-0.3-1.4-0.5l0,0l0,0c-0.3-0.2-0.5-0.6-0.9-0.4c0,0,0,0,0,0
		c-0.3-0.1-0.6-0.2-1-0.3c0,0,0,0,0,0l0,0c-0.6-0.2-1.2-0.5-1.7-0.7c0,0,0,0,0,0c-0.3-0.4-0.7-0.6-1.2-0.8c-2.7-1-5.4-1.9-8.2-2.9
		c-0.7-0.2-1.3-0.4-2-0.6c-1-0.4-2.1-0.8-3.2-1.1c-0.4-0.1-0.8-0.2-1.1,0l0,0c-1.6-0.6-3.3-0.7-5-0.7c0,0,0,0,0,0c0,0,0,0,0,0
		c-0.7,0-1.5-0.3-2.2,0c-0.3,0-0.6-0.1-1-0.1c0,0,0,0,0,0c0,0,0,0,0,0c-0.4-0.2-0.8-0.2-1.1,0c0,0,0,0,0,0c0,0,0,0,0,0
		c-0.7-0.3-1.3-0.2-2,0c0,0,0,0,0,0c0,0,0,0,0,0c-1.3,0-2.4,0.8-3.6,1.1c0,0,0,0,0,0c-1.2-0.1-2.4-0.1-3.6-0.2l0,0
		c-1.4,0-2.8,0-4.2,0c0,0,0,0,0,0c-1.9,0-3.9-0.2-5.8,0.3c-0.7,0.2-1.7-0.3-2,0.7c0.6,0.6,1.4,0.1,2.1,0.4c0.6,0.2,1.1-0.1,1.7-0.1
		c1.7-0.2,3.3-0.6,5.1,0c0.2,0.1,0.4-0.1,0.7-0.2c0,0,0,0,0,0c0,0,0,0,0,0c0.7,0.1,1.4,0.1,2.1,0.2c2.3,0.9,4.6,1.7,6.9,2.6
		c0.2,0.4,0.4,0.6,0.9,0.6c0.2,0.1,0.3,0.2,0.5,0.2c1.4,0.7,2.5,1.8,3.6,2.9l0,0c0.3,0.6,0.7,1,1.3,1.3c0.7,0.4,1.4,0.8,2.1,1.2
		c0,0,0,0,0,0c0.1,0.2,0.2,0.4,0.4,0.6c1.1,1.1,2.6,1.5,4.1,1.9c0,0,0,0,0,0c0.5,0.3,1,0.4,1.6,0.3c0.4,0,0.9-0.1,1.2,0
		c1.2,0.6,2.3,0.3,3.4,0c0,0,0,0,0,0c1,0.2,2,0.1,2.8-0.5l0,0c0.2,0,0.5,0.1,0.7,0.1c2-0.5,4-1,6-1.5c0.1,0,0.1,0,0.2,0
		c0.7-0.1,1.5-0.2,2.2-0.3c0,0,0,0,0,0l0,0c0.4,0.1,0.8,0.2,1.1-0.1c0.5,0.2,1,0.1,1.5,0c0,0,0,0,0,0c0,0,0,0,0,0
		c1.8,0.7,3.6,0.2,5.3-0.1c0.8,0.4,1.7,0.2,2.5,0.4c0.5,0.2,1,0.5,1.5,0c0,0,0,0,0,0c0,0,0,0,0,0l0,0c0.1,0,0.2,0.1,0.2,0.1
		c0.2,0,0.5,0,0.6-0.2C137.1,88.6,136.9,88.4,136.7,88.3z M103.1,83c-0.1-0.1-0.1-0.2-0.1-0.2c0.1,0,0.2,0,0.3,0.1
		C103.2,82.9,103.2,82.9,103.1,83z M109.3,88.9C109.3,88.9,109.3,88.9,109.3,88.9C109.3,88.9,109.3,88.9,109.3,88.9
		C109.3,88.9,109.3,88.9,109.3,88.9C109.3,88.9,109.3,88.9,109.3,88.9z"/>
	<path fill="#B3C5BD" d="M90,120.9c-0.2,0.1-0.3,0.1-0.5,0.2C89.8,121.3,89.9,121.2,90,120.9z"/>
	<polygon fill="#B3C5BD" points="104.4,110.3 104.4,110.3 104.4,110.3 104.4,110.3 	"/>
</g>
</svg>
