<?xml version="1.0" encoding="utf-8"?>
<!-- Generator: Adobe Illustrator 22.0.1, SVG Export Plug-In . SVG Version: 6.00 Build 0)  -->
<svg version="1.1" xmlns="http://www.w3.org/2000/svg" xmlns:xlink="http://www.w3.org/1999/xlink" x="0px" y="0px"
	 viewBox="0 0 158.3 164.3" enable-background="new 0 0 158.3 164.3" xml:space="preserve">
<g id="Layer_1">
</g>
<g id="lines">
</g>
<g id="circle">
</g>
<g id="Layer_3">
	<g>
		<path fill="#CB952B" d="M107.3,96.7c-2.3-7.6-3.6-20.6-11.9-24.4c-1.6-0.7-3.6-1.2-5.7-1.4c1.9-3,3.2-6.4,3.8-10.4
			c0.6-3.7,2-9.5,0.1-13c-1.3-2.4-4-3.6-6.9-4.4c-1.8-4.3-5.1-7-11.4-4.6c-5.1,1.9-9.5,6.9-12.8,10.9c-2.3,2.7-4.1,5.7-4.6,8.9
			c-0.5-0.3-1.1-0.3-1.8-0.1c-6.7,2.5-11.8,8.6-19,9.8c-1.7,0.3-2.1,1.9-1.6,3.1c-1,1.3-0.7,3.7,1.2,4c7.2,1.2,13.5,3.8,20.5,5.7
			c3.8,1,7.7,1.2,11.7,0.8c-3.2,4.3-4.1,9.9-3.8,15.2c0.4,7,4,11.4,9.7,15.2c0.2,0.1,0.4,0.3,0.6,0.4c-0.2,1.4-0.3,2.8-0.4,4.2
			c-0.1,1.2,0.8,2.1,1.9,2.4c0,0.9,0,1.9,0,2.8c0,2.3,0.8,7.2-0.1,9.4c-0.7,1.7-1.6,1.5-3.7,2.4c-2.4,1-4.7,2.3-7,3.7
			c-2.4,1.5-0.9,5.3,1.9,4.6c2.3-0.6,6-2.8,9.5-4.1c0.2,0.1,0.4,0.1,0.7,0.1c1,0,1.9,0,2.9,0c2.8,0,5.6,0.2,8.4,0.5
			c3.2,0.3,3.2-4.7,0-5c-1-0.1-2-0.2-3-0.3c0,0-0.1-0.1-0.1-0.1c-1.4-0.9-3-1.3-4.5-1.2c0.2-2.1-0.1-4.4-0.1-6.2c0-1.5,0-3,0-4.5
			c0.5,1,1.7,1.5,2.9,1.3c1.5-0.3,2.7-1.1,3.7-2.2c9.7,5,19.9,8.9,30.4,11.7c2.1,0.6,4-1.8,2.8-3.7
			C115.5,118.4,110.6,107.8,107.3,96.7z M101.6,117.8c1.3,1.8,3.3,2.8,5.8,1.6c1.3-0.6,2-1.7,2.2-2.8c1.4,3,2.9,5.9,4.5,8.8
			c-5-1.6-9.9-3.4-14.7-5.4C100.2,119.4,100.9,118.6,101.6,117.8z M107.6,112c-0.1-0.1-0.3-0.2-0.5-0.3c-1-0.5-1.9-0.3-2.6,0.2
			c-0.4-2.2-3.5-2.1-4.5-0.5c-0.4,0.6-1,1.7-1.6,2.7c-0.2-2.4,0.2-6.1,0.3-6.9c0.2-3.3,0.7-6.6,1.4-9.9c0.1-0.6,0-1.1-0.2-1.6
			c0.3-1.3,0.6-2.5,0.9-3.8c0.1,0.4,0.2,0.7,0.3,1.1C102.8,99.6,105,105.9,107.6,112z M100,89.1c-1.2-0.9-3.3-0.7-4,1.2
			c-1.7,4.9-3.5,9.7-5.6,14.5c-0.7,1.6-2,5.8-3.7,9c-0.2-0.1-0.5-0.3-0.8-0.4c0,0-0.1,0-0.1,0c0.2-2.9,0.9-5.8,1.3-8.4
			c0.3-2,0.6-4.1,1-6.1c4-5,6.7-11,7.9-17.6c0.1-0.5,0-1.1-0.3-1.6C97.9,82.2,99.1,85.6,100,89.1z M84.3,59.2
			c0.2,0.1,0.3,0.2,0.5,0.3c-0.2,0.4-0.5,0.7-0.7,1.1C84.2,60.1,84.2,59.6,84.3,59.2z M91.9,78.8c-1.1,1.3-2.1,2.7-3,4.1
			c0.1-1.1,0.1-2.2,0.1-3.4c0.1-3-3.9-3.1-4.9-0.7c-0.5,1.1-0.9,2.2-1.3,3.4c-0.5-0.2-1-0.2-1.5,0c-0.1,0-0.2-0.1-0.3-0.1
			c0.4-1.3,0.7-2.6,1-4c0.3-0.2,0.7-0.4,1-0.6c0.9,0.1,1.8-0.2,2.3-1.2c0-0.1,0.1-0.1,0.1-0.2c0.7-0.1,1.5-0.2,2.4-0.2
			c2.8,0,5,0.9,6.6,2.2C93.6,77.8,92.7,77.9,91.9,78.8z M83.5,56.5c-1-0.7-2.5-0.8-3.4,0.2c-0.9,1-1.7,1.9-2.5,2.9
			c1.5-4.1,2.9-8.4,4.1-12.6c0.4,0.1,0.9,0.2,1.3,0.3C83.8,50.1,83.6,53.6,83.5,56.5z M65,60.7c0.1,0.1,0.2,0.1,0.4,0.1
			c0,0.1-0.1,0.2-0.1,0.3c-0.1-0.1-0.2-0.2-0.3-0.3C65,60.9,65,60.8,65,60.7z M75.3,50.8c-0.7-0.4-1.5-0.5-2.2-0.1
			c0.2-0.8,0.3-1.6,0.5-2.4c0.8-0.7,1.6-1.2,2.5-1.4c0.2,0,0.3-0.1,0.5-0.1C76.2,48.1,75.8,49.4,75.3,50.8z M64.1,75.4
			c0.1,0.7,0.4,1.2,0.8,1.5c-0.5,0-1.1-0.1-1.6-0.1C63.6,76.3,63.9,75.8,64.1,75.4z M69,75.8c0-0.1,0.1-0.2,0.1-0.4
			c1,1.2,3.1,1.5,4.1-0.2c1.2-2.2,2.5-4.3,3.8-6.3c-0.4,1.2-0.8,2.3-1.2,3.5c-0.4,1.1,0.2,2.1,1,2.7c-2.6,1-5.5,1.5-8.5,1.8
			C68.6,76.5,68.8,76.2,69,75.8z M89.4,51.1c0.1,0.5,0.2,1.2,0.2,1.8c-0.3-0.4-0.7-0.8-1.2-1.1c0-0.8-0.1-1.6-0.2-2.5
			C88.8,49.9,89.3,50.5,89.4,51.1z M52.5,74c-2.8-1-5.5-1.7-8.4-2.4c4.6-2.9,9.2-5.8,13.8-8.6c0,0.2,0.1,0.4,0.1,0.6
			c0,0.1-0.1,0.1-0.1,0.2c-0.1,0.3-0.9,3.3-1.2,4.6c-0.5,0.2-0.9,0.4-1.5,0.6c-2.3,0.6-2.5,4.3,0,4.8c1.1,0.2,2,0.2,2.7,0
			c0,0.7,0,1.3,0,2C56.2,75.3,54.4,74.7,52.5,74z M74.2,105.7c0.6-0.5,1.1-1.1,1.4-1.8c0.2,0.5,0.4,1.1,0.8,1.6
			c-0.1,0.6-0.2,1.2-0.3,1.8C75.4,106.8,74.7,106.3,74.2,105.7z M92.8,111.7c0.2,0.1,0.4,0.1,0.5,0.2c-0.1,1.9-0.1,3.9,0.5,5.6
			c-1-0.5-1.9-0.9-2.8-1.4C91.7,114.5,92.3,113,92.8,111.7z"/>
	</g>
</g>
</svg>
