<?xml version="1.0" encoding="utf-8"?>
<!-- Generator: Adobe Illustrator 22.0.1, SVG Export Plug-In . SVG Version: 6.00 Build 0)  -->
<svg version="1.1" xmlns="http://www.w3.org/2000/svg" xmlns:xlink="http://www.w3.org/1999/xlink" x="0px" y="0px"
	 viewBox="0 0 158.3 164.3" enable-background="new 0 0 158.3 164.3" xml:space="preserve">
<g id="Layer_1">
	<g>
		<g>
			<path fill="#3A6DB5" d="M148.5,45.3c-0.6-1.2-1.3-2.3-2-3.5c-0.7-1.1-1.4-2.2-2.1-3.3l-4.8,4.8l-33.4,33.4l-4.1-4.1v-8.1
				l30.4-30.4l4.7-4.7l0,0c-0.9-0.9-1.7-1.9-2.6-2.8c-0.9-0.9-1.8-1.8-2.8-2.6v0l-4.7,4.7l-25,25V37.4l15.8-15.8l4.8-4.8
				c-1.1-0.7-2.2-1.4-3.3-2.1c-1.1-0.7-2.3-1.3-3.5-2c-4.4-2.3-9-4.3-13.8-5.7c-1.3-0.4-2.5-0.7-3.8-1.1c-1.3-0.3-2.5-0.6-3.8-0.9
				v6.8v22.3v5.4v5.4v16.3v0V65v1.8v3.6v1.8v3.6v12.7v3.6v0v1.8v3.6v1.8v3.6v0v16.3v5.4v5.4v22.3v6.8c1.3-0.3,2.6-0.5,3.8-0.9
				c1.3-0.3,2.6-0.7,3.8-1.1c4.8-1.5,9.5-3.4,13.8-5.7c1.2-0.6,2.3-1.3,3.5-2c1.1-0.7,2.2-1.4,3.3-2.1l-4.8-4.8l-15.8-15.8v-16.3v0
				l25,25l4.7,4.7c0.9-0.9,1.9-1.7,2.8-2.6c0.9-0.9,1.8-1.8,2.6-2.8c0,0,0,0,0,0l-4.7-4.7l-30.4-30.4v-8.1v-5.4v-2.8l1.4,1.4
				l2.7,2.7l33.4,33.4l4.8,4.8c0.7-1.1,1.4-2.2,2.1-3.3c0.7-1.1,1.3-2.3,2-3.5c5.8-11,9.2-23.5,9.2-36.8
				C157.7,68.8,154.4,56.3,148.5,45.3z M111,17.7l-8.9,8.9V14C105.2,15.1,108.2,16.3,111,17.7z M102.2,150.2v-12.6l8.9,8.9
				C108.2,148,105.2,149.2,102.2,150.2z M143.6,114l-31.9-31.9l31.9-31.9c4.8,9.6,7.5,20.4,7.5,31.9C151,93.6,148.3,104.4,143.6,114
				z"/>
			<path fill="#3A6DB5" d="M56.1,7c-4.8,1.5-9.5,3.4-13.8,5.7c-1.2,0.6-2.3,1.3-3.5,2c-1.1,0.7-2.2,1.4-3.3,2.1l4.8,4.8l15.8,15.8
				v16.3l-25-25L26.4,24c0,0,0,0,0,0c-0.9,0.9-1.9,1.7-2.8,2.6c-0.9,0.9-1.8,1.8-2.6,2.8l4.7,4.7l30.4,30.4v0v8.1V78v2.8l-1.4-1.4
				L52,76.7L18.7,43.4l-4.8-4.8c-0.7,1.1-1.4,2.2-2.1,3.3c-0.7,1.1-1.3,2.3-2,3.5c-5.8,11-9.2,23.5-9.2,36.8
				c0,13.3,3.3,25.9,9.2,36.8c0.6,1.2,1.3,2.3,2,3.5c0.7,1.1,1.4,2.2,2.1,3.3l4.8-4.8L52,87.6l4.1,4.1v8.1l-30.4,30.4l-4.7,4.7h0
				c0.9,0.9,1.7,1.9,2.6,2.8c0.9,0.9,1.8,1.8,2.8,2.6l4.7-4.7l25-25v16.3l-15.8,15.8l-4.8,4.8c1.1,0.7,2.2,1.4,3.3,2.1
				c1.1,0.7,2.3,1.3,3.5,2c4.4,2.3,9,4.3,13.8,5.7c1.3,0.4,2.5,0.7,3.8,1.1c1.3,0.3,2.5,0.6,3.8,0.9v-6.8V130v-5.4v-5.4v-16.3v-3.6
				v-1.8v-3.6v-1.8v-3.6V75.8v-3.6v0v-1.8v-3.6V65v-3.6v0V45.1v-5.4v-5.4V11.9V5.1C62.5,5.4,61.2,5.6,60,6C58.7,6.3,57.4,6.6,56.1,7
				z M56.1,14v12.6l-8.9-8.9C50.1,16.3,53.1,15.1,56.1,14z M7.3,82.1c0-11.4,2.7-22.3,7.5-31.9l31.9,31.9L14.7,114
				C10,104.4,7.3,93.6,7.3,82.1z M47.3,146.5l8.9-8.9v12.6C53.1,149.2,50.1,148,47.3,146.5z"/>
			<path fill="#3A6DB5" d="M75.3,3.7v6.7v35.4v5.4v2.2v3.2v2.2v5.4v8.6v0v5.4v2.2v3.2v0V86v5.4v8.6v5.4v2.2v3.2v2.2v5.4v35.4v6.7
				c1.3,0.1,2.5,0.1,3.8,0.1c1.3,0,2.6,0,3.8-0.1v-6.7v-35.4v-5.4v-2.2v-3.2v-2.2V100v-8.6v0V86v-2.2v-3.2v0v-2.2v-5.4v-8.6v-5.4
				v-2.2v-3.2v-2.2v-5.4V10.4V3.7c-1.3-0.1-2.5-0.1-3.8-0.1C77.9,3.6,76.6,3.6,75.3,3.7z"/>
		</g>
	</g>
</g>
<g id="lines">
</g>
<g id="circle">
</g>
<g id="Layer_3">
</g>
</svg>
