<?xml version="1.0" encoding="utf-8"?>
<!-- Generator: Adobe Illustrator 22.0.1, SVG Export Plug-In . SVG Version: 6.00 Build 0)  -->
<svg version="1.1" xmlns="http://www.w3.org/2000/svg" xmlns:xlink="http://www.w3.org/1999/xlink" x="0px" y="0px"
	 viewBox="0 0 158.3 164.3" enable-background="new 0 0 158.3 164.3" xml:space="preserve">
<g id="Layer_1">
</g>
<g id="lines">
</g>
<g id="circle">
</g>
<g id="Layer_3">
	<g>
		<path fill="#CB952B" d="M139.1,66.3c-0.1-2.3-2.6-3.1-4.3-1.8c-3.3,2.7-6.8,5.5-10.6,7.5c-0.7-0.2-1.4-0.2-2.2,0.1
			c-1.4,0.7-2.8,1.4-4.1,2.2c-6.6,1.4-11.3-1.5-17.2-4c-11.4-4.9-23.7-8.1-35.8-11c-8.8-2.1-18.9-4.1-26.6,2
			c-4.7,3.7-8.4,9-12.3,13.5c-3.3,3.8-8,7.8-9,12.9c-0.2,1.2,0.3,2.1,1.1,2.6c-0.7,8,12.6,10,18.2,10.6c0.6,0.1,1,0,1.4-0.3
			c3.1,1.3,6.6,1.9,10.3,2c0.9,1.1,2.7,1.4,3.8,0.3c1.4,0.5,2.8,1,4.4,1.2c1.5,0.3,2.6-0.7,3-1.9c2.6-0.3,5.1-0.6,7.2-0.8
			c6.2-0.8,12.2-2.3,18-4.7c5.6-2.3,11.1-5.3,17.2-6.4c7.1-1.3,12.9,0.6,17.8,5.9c3.5,3.8,6.6,7.9,11,10.7c1.7,1,3.7-0.3,3.8-2.2
			c0.3-6.8,0.5-13.6,1.5-20.3C136.7,78.6,139.3,72.5,139.1,66.3z M59.3,69.1c0-0.1,0-0.1,0.1-0.2c0.1,0.2,0.2,0.3,0.3,0.5
			c-0.5,0.7-1,1.3-1.5,2C58.6,70.6,59,69.8,59.3,69.1z M83.2,86.9c1.7-2.5,3.6-4.9,5.7-7.2c2.3,0,4.7,0,7.1,0.1c0,0-0.1,0-0.1,0
			C91.8,82.4,87.6,84.8,83.2,86.9z M34.8,89.4c0-0.1,0-0.2,0-0.3c-0.1-1.4,0-2.8,0.3-4.3c1.5-1.3,3.1-2.6,4.6-4c0,0,0,0,0,0
			c-1.5,2.7-3,5.3-4.6,8C34.9,89,34.8,89.2,34.8,89.4z M58.2,79.6c-0.6,1.5-1.4,3-2.1,4.4c-0.5,0.2-1.1,0.4-1.6,0.6
			C55.7,83,57,81.3,58.2,79.6z M59.4,90.1c0.1-0.1,0.2-0.3,0.2-0.4C59.6,89.8,59.5,90,59.4,90.1C59.4,90.1,59.4,90.1,59.4,90.1z
			 M75.4,79.8c-0.5,0.5-1,0.9-1.5,1.4c-0.8-0.1-1.5-0.2-2.2-0.4C72.9,80.4,74.1,80.1,75.4,79.8z M81.6,74.2
			c-0.6-0.1-1.1-0.1-1.7-0.2c0.2-0.3,0.3-0.6,0.3-0.9c0.9-0.5,1.8-1,2.8-1.4c0.9-0.4,1.2-1.1,1.3-1.8c0.7,0.2,1.5,0.4,2.2,0.7
			c-0.6,0-1.1,0.2-1.6,0.7C83.8,72.2,82.7,73.2,81.6,74.2z M35.2,91.4c0.9,1.2,2.6,1.7,3.8,0.4c0.7-0.8,1.4-1.7,2.1-2.5
			c0.5,0.9,1.5,1.5,2.5,1.5c-0.1,0.1-0.2,0.3-0.2,0.4c-1.7,2.8,2.4,5,4.3,2.5c0.6-0.8,1.2-1.6,1.8-2.5c0.3,0.7,0.8,1.2,1.6,1.5
			c0,0,0.1,0,0.1,0c-0.4,0.8-0.9,1.6-1.3,2.5c-0.8,0.6-1.4,1.3-1.8,2.1C43.1,97.1,37,96.3,35.2,91.4z M66.1,86.8
			c0.6-0.1,1.1-0.2,1.7-0.2c-0.8,0.7-1.6,1.4-2.4,2.1C65.6,88,65.9,87.4,66.1,86.8z M98.6,79.9c1.3,0.1,2.7,0.3,3.9,0.5
			c-1,0.6-2,1.2-3,1.8C99.6,81.4,99.3,80.5,98.6,79.9z M110.6,84.8c0.2,0.3,0.5,0.5,0.7,0.8c-0.5-0.1-1-0.2-1.5-0.3
			C110.1,85.1,110.4,84.9,110.6,84.8z M115.3,82.6c-0.2-0.2-0.3-0.4-0.5-0.6c1.7-1,3.3-2,5-3c0.7-0.2,1.4-0.4,2.1-0.6
			c0.4,1.2,0.9,2.4,1.7,3.2c-0.1,0.9-0.1,1.8-0.1,2.7c-0.3,0.3-0.6,0.6-0.9,0.7c-1.7,0.1-3.4,0.2-5.1,0.3
			C116.6,84.5,115.9,83.6,115.3,82.6z M127.2,77.9c-0.1-0.1-0.3-0.1-0.4-0.2c0-0.3-0.1-0.8-0.3-1.4c1.1-0.6,2.1-1.2,3.1-1.8
			C128.7,75.6,127.9,76.8,127.2,77.9z M131.1,73.6c0.9-0.6,1.7-1.2,2.5-1.8c-0.1,0.9-0.3,1.7-0.5,2.6
			C132.6,73.8,131.9,73.4,131.1,73.6z M99.5,75.2c-3.7-0.3-7.4-0.3-11.1-0.5c0.1-0.2,0.2-0.3,0.3-0.5c0.7-1.3,0.2-2.5-0.7-3.2
			c3.3,1.1,6.6,2.2,9.8,3.5C98.4,74.7,99,75,99.5,75.2z M64.6,64.4c2,0.5,4,1,6,1.5c-3-0.3-6.1-0.6-9.1-0.9c-1.2-0.1-2,0.7-2.3,1.7
			c-0.7-1.5-2.5-2.3-3.8-0.7c-0.1,0.2-0.3,0.3-0.4,0.5c0,0,0,0,0,0c0,0,0,0,0,0c-1.4,1.8-2.7,3.6-4.1,5.4c-0.3-0.1-0.6-0.1-0.9,0
			c1-2,1.9-3.9,2.8-5.9c1.4-3-2.4-5.1-4.3-2.5c-0.3,0.4-0.6,0.8-0.9,1.1c-0.7-0.1-1.5,0.1-2.1,0.6c-1.3,1.3-2.6,2.6-3.9,3.9
			c0.4-0.8,0.8-1.6,1.2-2.4c0.4-0.9,0.4-1.7,0-2.3c1.3-0.9,2.8-1.5,4.4-1.9C52.9,61.4,59.1,63,64.6,64.4z M24.1,88.6
			c0.4-1.1,1.5-2.2,2.4-3.2c-0.2,0.4-0.3,0.8-0.4,1.3c-0.6,2.5-0.3,4.8,0.6,6.8C24.5,92.7,22.7,92,24.1,88.6z M63.4,96.8
			c3.8-3.2,7.6-6.5,11.4-9.8c-0.8,1.1-1.6,2.1-2.4,3.2c0,0,0,0,0,0c-0.1,0.2-0.3,0.3-0.4,0.5c-1.6,2.1,1.6,4.8,3.5,3.4
			c0.1,0.1,0.2,0.2,0.4,0.3C71.8,95.6,67.6,96.4,63.4,96.8z M104.5,85.1c0.3-0.2,0.6-0.4,0.9-0.5c0.1,0.2,0.2,0.3,0.3,0.5
			C105.2,85.1,104.9,85.1,104.5,85.1z M121.3,91.3c2-0.5,3.5-1.4,4.7-2.7c0.2,0,0.4,0,0.6-0.1c0.1,0,0.1,0,0.2-0.1
			c0,0.1,0,0.3,0,0.4c-0.3,1.6-0.5,3.2-0.8,4.8c-0.4,2.3,2.1,3.7,3.7,2.9c-0.1,1.2-0.1,2.3-0.2,3.5
			C126.6,97.3,124.2,94.1,121.3,91.3z"/>
	</g>
</g>
</svg>
