<?xml version="1.0" encoding="utf-8"?>
<!-- Generator: Adobe Illustrator 22.0.1, SVG Export Plug-In . SVG Version: 6.00 Build 0)  -->
<svg version="1.1" xmlns="http://www.w3.org/2000/svg" xmlns:xlink="http://www.w3.org/1999/xlink" x="0px" y="0px"
	 viewBox="0 0 158.3 164.3" enable-background="new 0 0 158.3 164.3" xml:space="preserve">
<g id="Layer_1">
</g>
<g id="lines">
</g>
<g id="circle">
</g>
<g id="Layer_3">
	<path fill="#CB952B" d="M127.8,57c-1.1-0.2-2.3,0.3-2.7,1.7c-0.4,1.4-0.9,2.7-1.4,4c-0.9,1.1-1.8,2.2-2.8,3.3
		c-1.7-1.8-3.9-3.1-6.3-4.1c-9.5-3.6-21.4-4.3-32-2.4c0.6-2.1,0.7-4.4,0.8-6.6c0.2-4.8,0.6-9.3,1.8-13.9c0.9-3.3,2-10.1-3.7-9.4
		c-2.2,0.3-3.4,1.7-4.2,3.5c-0.8,0.2-1.5,0.7-1.8,1.6c-0.7,1.7-1.1,3.6-1.4,5.5c-0.6,1-1.4,1.9-2.3,2.8c-5.2-2.6-12.3-2.7-18.6-1.3
		c0-1.2,0-2.4,0-3.5c1.2-1.8,2.1-3.7,2.4-5.9c0.2-2.2-0.5-4.8-3.1-5.1c-2.9-0.3-3.8,2.2-4.3,4.5c-2,3.6-4.6,7-7,10.4
		c-1-0.2-2.1,0.1-2.8,1.1c-1.6,2.3-3.1,5-4.2,7.8c-5,7.2-11.9,15.8-4.2,21.5c1,0.8,2.2,1.2,3.4,1.5c3.7,2.6,11.6,3.4,19,3.3
		C48.3,98,44.1,118.5,40,139.1c-0.2,1.2,0.2,2.2,1.1,2.8c3.6,2.5,8,0.4,9.7-3.4c0.9-2.1,0.9-4.4,1-6.6c0.2-4.3,0.8-8.6,1.7-12.8
		c0.7-3.2,1.3-6.4,2-9.7c4.1-0.4,8.3-0.8,12.4-1c1.3,0.4,2.8,0.3,4.4-0.2c2.3-0.1,4.6-0.2,6.9-0.2c1.4,1.2,3.5,0.9,5.7-0.1
		c2.5,0,5,0,7.5,0.1c3.2,0.1,6.4,0.2,9.6,0.4c4.5,0.3,7.5,1,8.5,5.9c0.5,2.5,0.6,5.1,0.5,7.8c-0.3,0.4-0.6,0.9-0.6,1.5
		c-0.5,4.1-1,8.2-1.5,12.2c-0.1,0.8,0.2,1.4,0.6,1.8c0,0.6-0.1,1.2-0.1,1.8c-0.2,3.3,4.7,3.1,5,0c1.7-15.8,2.8-31.9,5.7-47.5
		c1.1-5.7,3.9-12.2,3.7-18.2c0.6-0.9,1.2-1.8,1.7-2.8c0.9,0.1,1.8-0.2,2.3-1.2c1.6-3.1,2.8-6.2,3.6-9.6
		C132,57.7,129.5,56.1,127.8,57z M78.5,49.5c0,0.4,0,0.7,0,1.1c-0.2-0.5-0.4-1-0.6-1.4c0.1-0.8,0.1-1.5,0.2-2.3
		c0.3-0.4,0.5-0.8,0.8-1.2C78.7,47,78.5,48.2,78.5,49.5z M45.8,67c0.1,0.3,0.1,0.5,0.2,0.7c0,0-0.1,0-0.1,0c-0.2,0-0.5-0.1-0.7-0.1
		C45.4,67.4,45.6,67.2,45.8,67z M58,53.8c-0.1-0.5-0.1-1-0.2-1.5c0.1,0,0.2,0,0.3,0.1C58.4,52.5,58.3,53,58,53.8z M43.9,61.5
		c0,0.1-0.1,0.1-0.1,0.2c-0.2,0.1-0.4,0.1-0.6,0.1c0.1-0.5,0.3-1.1,0.5-1.6c0-0.1,0.1-0.3,0.1-0.4C43.7,60.4,43.7,61,43.9,61.5z
		 M65.3,76.3c-0.1,0.1-0.1,0.2-0.2,0.3C65.2,76.5,65.2,76.4,65.3,76.3C65.3,76.3,65.3,76.3,65.3,76.3z M90.5,94.1
		C90.5,94.1,90.5,94.1,90.5,94.1C90.5,94.1,90.5,94.1,90.5,94.1C90.5,94.1,90.5,94.1,90.5,94.1z M92.2,82.1c0.7-0.8,1.5-1.7,2.4-2.4
		c-1.3,2-2.6,3.9-4.1,5.8C91.1,84.4,91.6,83.3,92.2,82.1z M104.4,77.2c0-0.4,0-0.8,0.1-1.2c0.1,0.2,0.1,0.4,0.2,0.6
		C104.6,76.8,104.5,77,104.4,77.2z M100,72.9c0,0,0,0.1-0.1,0.1c0,0-0.1,0-0.1,0c0.1-0.1,0.1-0.2,0.2-0.2
		C100,72.8,100,72.9,100,72.9z M88.2,76.4c0.9-1.6,1.9-3.2,3-4.4C90.3,73.5,89.3,75,88.2,76.4z M106.7,66.8c0-0.1-0.1-0.2-0.2-0.3
		c0.1,0,0.1,0,0.2,0C106.8,66.6,106.8,66.7,106.7,66.8z M46.8,50.4c0.2-0.5,0.3-0.9,0.4-1c0,0.1-0.1,0.5-0.3,1
		C46.9,50.4,46.9,50.4,46.8,50.4z M72.8,99.3c0.6-0.5,1.3-1.1,1.9-1.6c0.7,0.1,1.5,0.2,2.2,0.3c0.5,0.3,1,0.5,1.6,0.5
		c-0.2,0.2-0.5,0.4-0.7,0.6C76.1,99.2,74.4,99.2,72.8,99.3z M85.2,98.9c0.4,0,0.7,0,1.1,0.1c0,0,0,0.1,0,0.1c-0.4,0-0.8,0-1.3,0
		C85.1,99,85.1,99,85.2,98.9z M81.1,65.5c-0.1,0-0.3,0.1-0.4,0.2c-0.2-0.1-0.4-0.2-0.7-0.3c0.5-0.1,1-0.2,1.5-0.3
		C81.4,65.2,81.2,65.4,81.1,65.5z M72.3,50.4c0.2,0.2,0.4,0.5,0.5,0.7c-0.2,1.6-0.5,3.2-0.9,4.8c0,0,0,0,0,0c-0.1-1.5-0.2-3-0.3-4.5
		c0-0.4-0.2-0.8-0.4-1.1c0.2-0.2,0.3-0.3,0.5-0.5C72,50,72.2,50.2,72.3,50.4z M66.6,47.9c-0.4-0.7-0.9-1.3-1.4-1.9
		c0.8,0.2,1.7,0.5,2.4,0.9C67.2,47.2,66.9,47.5,66.6,47.9z M51.9,48.3c-0.1-0.4-0.2-0.7-0.3-1.1c0.6-0.2,1.2-0.4,1.8-0.6
		C52.9,47.1,52.4,47.7,51.9,48.3z M61.4,103.5c0.1-0.2,0.3-0.3,0.4-0.5c0.1,0.2,0.2,0.5,0.3,0.7c-0.3,0-0.6,0.1-1,0.1
		C61.2,103.7,61.3,103.6,61.4,103.5z M117.5,80.8c0,0,0.1,0,0.1,0c-0.1,0.3-0.1,0.5-0.2,0.8C117.4,81.3,117.4,81.1,117.5,80.8z
		 M32.7,62.5c0.2,0.8,0.5,1.6,0.8,2.3c-0.3,0.8-0.7,1.7-1,2.5c0,0,0,0-0.1,0.1C31.6,66.1,31.9,64.4,32.7,62.5z M47,129.5
		c-0.1,2.1-0.4,6.3-1.6,7.8C46,134.7,46.5,132.1,47,129.5z M57,101.6c0.1,0,0.2,0,0.3,0c0,1,0.6,2,1.5,2.5c-0.7,0.1-1.5,0.2-2.2,0.2
		C56.7,103.4,56.8,102.5,57,101.6z M106,103.8c1.2,0,2.4-0.1,3.6-0.2c0.2,0.6,0.5,1.1,0.7,1.6C109.1,104.5,107.7,104.1,106,103.8z"
		/>
</g>
</svg>
