<?xml version="1.0" encoding="utf-8"?>
<!-- Generator: Adobe Illustrator 22.0.1, SVG Export Plug-In . SVG Version: 6.00 Build 0)  -->
<svg version="1.1" xmlns="http://www.w3.org/2000/svg" xmlns:xlink="http://www.w3.org/1999/xlink" x="0px" y="0px"
	 viewBox="0 0 158.3 164.3" enable-background="new 0 0 158.3 164.3" xml:space="preserve">
<g id="Layer_1">
	<path fill="#3A6DB5" d="M136.6,103.7L147,93.3l10.7-10.7l-79-79L68.1,14.2l0,0L57.6,24.7l0,0l-1.6,1.6l-2.5,2.5l0,0L42.9,39.4l0,0
		L32.3,50l0,0l-7.6,7.6L15.3,67l0,0l-0.8,0.8l-3.3,3.3l0,0L0.6,81.7l79,79l13.6-13.6l7.5-7.5l0,0l2-2l2.1-2.1l0,0l8.5-8.5l8.5-8.5
		l0,0l10.6-10.6l0,0l1.8-1.9L136.6,103.7L136.6,103.7z M132.5,99.6l-14.4-14.4l13,0.1l7.8,7.8L132.5,99.6z M139.4,85.4l7.3,0
		l-3.6,3.6L139.4,85.4z M72.2,18.3l6.5-6.5l67.9,67.9l-13-0.1l-0.9-0.9L72.2,18.3z M68.1,22.4l57.2,57.2l-13-0.1L61.7,28.8
		L68.1,22.4z M104,79.4l-13-0.1L51.1,39.4l6.5-6.5L93,68.3L104,79.4z M82.7,79.3l-13-0.1L40.5,50l6.5-6.5l35.4,35.4L82.7,79.3z
		 M29.9,60.5l6.5-6.5l25.1,25.1l-13-0.1L29.9,60.5z M25.8,64.6L40.2,79l-13-0.1l-7.8-7.8L25.8,64.6z M18.9,78.9l-7.3,0l3.6-3.6
		L18.9,78.9z M79.6,152.5L11.7,84.6l13,0.1l61.1,61.1l0.2,0.2L79.6,152.5z M96.6,135.4l-6.5,6.5l-5.6-5.6L33,84.8l13,0.1L61.2,100
		L96.6,135.4z M54.3,84.9l13,0.1l4.5,4.5l35.4,35.4l-6.5,6.5L54.3,84.9z M111.3,120.8L88.7,98.2L75.6,85l13,0.1l29.2,29.2
		L111.3,120.8z M121.9,110.2L96.8,85.1l13,0.1l18.5,18.5L121.9,110.2z"/>
</g>
<g id="lines">
</g>
<g id="circle">
</g>
<g id="Layer_3">
</g>
</svg>
