<?xml version="1.0" encoding="utf-8"?>
<!-- Generator: Adobe Illustrator 22.0.1, SVG Export Plug-In . SVG Version: 6.00 Build 0)  -->
<svg version="1.1" xmlns="http://www.w3.org/2000/svg" xmlns:xlink="http://www.w3.org/1999/xlink" x="0px" y="0px"
	 viewBox="0 0 158.3 164.3" enable-background="new 0 0 158.3 164.3" xml:space="preserve">
<g id="Layer_1">
</g>
<g id="lines">
	<path id="lines_1_" fill="#C75D2B" d="M79.2,18.8c-34.9,0-63.3,28.4-63.3,63.3c0,34.9,28.4,63.3,63.3,63.3
		c34.9,0,63.3-28.4,63.3-63.3C142.5,47.2,114.1,18.8,79.2,18.8z M79.2,139.7c-25.5,0-47.2-16.6-54.7-39.6h10
		c7.1,17.7,24.5,30.2,44.7,30.2c20.2,0,37.6-12.5,44.7-30.2h10C126.3,123.1,104.6,139.7,79.2,139.7z M38.5,94.4
		c-1.2-3.9-1.8-8-1.8-12.2c0-23.4,19.1-42.5,42.5-42.5c23.4,0,42.5,19.1,42.5,42.5c0,4.3-0.6,8.4-1.8,12.2H38.5z M117.6,100.1
		c-6.8,14.5-21.5,24.5-38.5,24.5c-17,0-31.7-10-38.5-24.5H117.6z M125.8,94.4c1-3.9,1.6-8,1.6-12.2c0-26.6-21.6-48.2-48.2-48.2
		c-26.6,0-48.2,21.6-48.2,48.2c0,4.2,0.6,8.3,1.6,12.2h-9.7c-0.9-3.9-1.3-8-1.3-12.2c0-31.8,25.8-57.6,57.6-57.6
		c31.8,0,57.6,25.8,57.6,57.6c0,4.2-0.5,8.3-1.3,12.2H125.8z"/>
</g>
<g id="circle">
	<g id="circle_1_">
		<path fill="#CB952B" d="M114.8,82.1c0,19.7-16,35.7-35.7,35.7c-19.7,0-35.7-16-35.7-35.7c0-19.7,16-35.7,35.7-35.7
			C98.8,46.5,114.8,62.4,114.8,82.1z"/>
	</g>
</g>
<g id="Layer_3">
</g>
</svg>
