<?xml version="1.0" encoding="utf-8"?>
<!-- Generator: Adobe Illustrator 22.0.1, SVG Export Plug-In . SVG Version: 6.00 Build 0)  -->
<svg version="1.1" xmlns="http://www.w3.org/2000/svg" xmlns:xlink="http://www.w3.org/1999/xlink" x="0px" y="0px"
	 viewBox="0 0 158.3 164.3" enable-background="new 0 0 158.3 164.3" xml:space="preserve">
<g id="Layer_1">
</g>
<g id="lines">
</g>
<g id="circle">
</g>
<g id="Layer_3">
	<path fill="#B3C5BD" d="M105.2,79.2c1.4,0.9,2.9,1.6,4.5,2.4c1.6,0.8,3.2,0.8,4.5-0.4c1.5-0.4,1.9-1.5,2.4-2.5
		c0.6-1.1,0.6-2.4,0.1-3.6c-0.9-2.1-2.5-3.6-5.1-4.2c-0.6-0.7-1.9-0.5-2.4-1.4c0.1-1.1-0.3-2-0.9-2.9c-0.4-0.5-0.7-1-0.7-1.7
		c0.2-0.1,0.2-0.3,0.3-0.5l0,0c0.4,0,0.6-0.2,0.7-0.5c0,0,0,0,0,0c0,0,0,0,0,0c0.3-0.1,0.5-0.3,0.8-0.4c0,0,0,0,0,0c0,0,0,0,0,0
		c0.1,0,0.2,0.1,0.3,0.1c0.8,0,0.9,0,0.7-0.6c-0.2-0.5,0-0.8,0.2-1.2c0.4-0.9,0.9-1.7,1.3-2.6c0.3-0.1,0.6-0.3,0.7-0.5c0,0,0,0,0,0
		c0.2-0.1,0.5-0.2,0.7-0.4c1.7-0.3,5.9-2.3,7-3.2c0.1-0.1,0.2-0.3,0.3-0.4c1.3-0.7,2.2-1.5,2.5-2.8c0,0,0,0,0,0h0
		c0.4-0.5,0.5-1,0.5-1.5c0.1-0.3,0.1-0.7,0.2-1c0.2-0.4,0.1-0.8-0.3-1.1l0,0l0,0c0.1-0.3,0-0.5-0.4-0.7c0-0.3-0.2-0.5-0.6-0.5
		c-0.1-0.2-0.3-0.2-0.5-0.2c-0.2-0.4-0.6-0.6-1.1-0.7c0,0,0,0,0,0c-2-1-3.7-0.2-5.5,0.4c-0.2,0.1-0.4,0.2-0.4,0.4
		c-0.3,1-1.7,1.3-2,2.2c0,0,0,0,0,0c-1.3,1.6-2,3.3-2.4,5.1c-0.1,0.4,0.1,0.8,0.2,1.2c0,0,0,0,0,0c0,0.3,0,0.6,0,0.9
		c0.1,0.2,0.3,0.5,0.3,0.8c-0.1-0.3-0.2-0.5-0.3-0.8c-0.1,0.3,0,0.6,0.3,0.8c0,0,0,0,0,0c-0.1,0.1-0.1,0.3,0.1,0.4c0,0,0,0,0,0
		c0,0,0,0,0,0c-0.1,0.6-0.3,1.1,0.1,1.6c0,0,0,0,0,0c-0.9,1.1-2.2,2-2.8,3.2c0,0,0,0,0,0c-0.5,0.3-1,0.6-1.5,0.9c0,0,0,0,0,0
		c0,0,0,0,0,0c-0.8-0.1-1.3,0.2-1.7,0.7c-0.5,0.6-0.2,1.2,0.3,1.8c0,0,0,0,0,0c0.6,1.1,1.2,2.2,0.2,3.3c-0.1,0.1,0.1,0.3,0.2,0.5
		c-0.5,0.9-0.9,1.8-1.5,2.6c-0.7,0.9-1,1.9-1.1,2.9C103.2,76.6,103.6,78.2,105.2,79.2z M111.6,73C111.6,73,111.6,73,111.6,73
		C111.6,73,111.7,73,111.6,73C111.6,73,111.6,73,111.6,73z"/>
	<path fill="#B3C5BD" d="M131.5,65.7c-0.2-0.4-0.5-0.6-1-0.7c-1-0.8-2.1-1.5-3.5-1.5c-1.2,0-2.3-0.2-3.4-0.3c-3.1-0.2-6.1,0.2-9,1.1
		c-0.2,0.1-0.5,0.3-0.6,0.6c-0.1,0.3,0.2,0.5,0.5,0.6c0.7,0.2,1.4,0.3,2.1,0.5c0,0,0,0,0,0c0.1,0.5,0.5,0.7,0.9,1
		c1.7,1.3,3.3,2.5,5,3.8c0,0,0,0,0,0c0,0.3,0.2,0.5,0.6,0.6l0,0c0.1,0.1,0.3,0.2,0.5,0.2c0.9,0.7,1.7,1.5,3.2,1.1c0,0,0,0,0,0
		c1,0.2,1.8-0.2,2.6-0.6c0.4-0.3,0.9-0.3,1.4-0.4c2.4-0.1,3.4-1.4,2.9-3.2c-0.1-0.4-0.3-0.8-0.5-1.2
		C132.8,66.5,132.4,65.9,131.5,65.7L131.5,65.7L131.5,65.7z"/>
	<path fill="#B3C5BD" d="M133.6,91.3c1.2-0.7,1.1-1.8,1.3-2.8c0.5-2.3,0-3.1-2.8-4.3c-0.4-0.4-0.9-0.8-1.6-0.6
		c-0.8,0.2-1.6,0.4-2.3,0.7c-1.3,0.5-2.2,1.2-2.5,2.5c-1.6,1.8-2.4,3.8-2.3,6.1h0c0,0.3-0.1,0.6-0.1,1c-0.2,0.3-0.1,0.6,0.3,0.8
		c0,0,0,0,0,0c0,0,0,0,0,0c0.2,0.3,0.4,0.6,0.5,0.9c0,0.1,0.1,0.2,0.2,0.2c0.1,0.1,0.3,0.3,0.4,0.4c0,0,0,0,0,0h0l0,0
		c-0.2,0.9-0.4,1.8-0.7,2.7c0.9-0.1,0.8-0.8,1.2-1.1c0.2-0.2,0.3-0.6,0.4-0.9c0,0,0,0,0,0c0,0,0,0,0,0c0.1-0.1,0.2-0.2,0.3-0.3
		c0.4,0,0.6-0.1,0.8-0.4c0,0,0,0,0,0c0,0,0,0,0,0C129.3,94.8,131.8,93.3,133.6,91.3z"/>
	<path fill="#B3C5BD" d="M100.3,15.9c-0.6-1.4-1.5-2.7-3.6-2.8c-0.2,0-0.5-0.3-0.6-0.5c-0.3-0.6-0.9-0.6-1.6-0.6
		c-0.5,0.1-1,0.1-1.6,0.1c-1.2-0.1-1.3,0.6-1.6,1.3c-0.7,0.3-1.2,0.8-1.5,1.4c-2.3,2.1-2.8,4.5-1.8,7.2c0,0.7,0.7,1.2,1,1.9
		c0.6,1.4,1.9,2.2,2.9,3.3c0.4,0.4,0.9,0.3,1.2-0.2c0.1-0.2,0.3-0.4,0.5-0.7c0.2-0.1,0.5-0.2,0.7-0.4h0c0,0,0,0,0,0
		c0.5-0.2,0.7-0.6,0.8-1c0,0,0,0,0,0c0,0,0,0,0,0c0.2-0.1,0.4-0.1,0.6-0.2c0.3,0,0.4,0,0.5-0.3c0,0,0,0,0,0c0.1-0.2,0.2-0.3,0.4-0.5
		l0,0l0,0c0,0,0,0,0,0c0,0,0,0,0,0l0,0c0.5-0.2,0.7-0.5,0.8-1l0,0c0.4-0.2,0.7-0.5,0.7-0.9c0.1-0.1,0.2-0.3,0.3-0.4c0,0,0,0,0,0
		c0.7-0.3,1-0.8,0.8-1.5C100.2,18.8,101,17.4,100.3,15.9z M93.3,20.2C93.3,20.2,93.3,20.2,93.3,20.2C93.3,20.2,93.3,20.2,93.3,20.2
		C93.3,20.2,93.3,20.2,93.3,20.2z M94.3,25.2C94.3,25.2,94.2,25.1,94.3,25.2C94.3,25.1,94.3,25.1,94.3,25.2
		C94.3,25.1,94.3,25.1,94.3,25.2z"/>
	<path fill="#B3C5BD" d="M76.8,102.1c-1.8,2.9-1.9,3.5-0.9,6.2c0.6,1.4,1.6,2.1,3.4,1.9c0.6-0.1,1.2,0.1,1.8,0.2
		c0.3,0.5,0.9,0.8,1.5,0.5c0.6-0.3,0.3-0.8,0.2-1.2c-0.1-0.3,0-0.5-0.1-0.8l0,0c0,0,0,0,0,0C84.1,104.9,82.5,103,76.8,102.1z"/>
	<path fill="#B3C5BD" d="M146.3,87c-0.4,0-0.8,0-1.3-0.1c-0.7,0.1-1.5,0.3-2.2,0.4c0,0,0,0,0,0c-0.5-0.1-1-0.1-1.3,0.3
		c-0.7,0.2-1.4,0.3-1.9,0.8l0,0c0,0,0,0,0,0c-1.1,0.3-1.8,1-2.6,1.7l0,0c-1.8,1.3-2.4,3.1-3.1,4.9c-0.2,0.2-0.6,0.4-0.6,0.6
		c-0.2,1.6-1.4,2.4-2.9,3c-0.3,0.1-0.5,0.3-0.7,0.5l0,0c-1.3,0.5-2.6,1-4,1.5c-0.5,0.2-1,0.5-1.4,0.4c-1.3-0.3-2.2,0.3-3.1,0.9
		c-1.7,0.5-3.5,0.8-5.3,0.8c-0.5-0.2-1-0.1-1.5,0.2c0,0,0,0,0,0c-0.2,0-0.4,0-0.5,0c0,0,0,0,0,0c-0.5-0.1-1,0-1.3,0.4c0,0,0,0,0,0
		l0,0l0,0c0,0,0,0,0,0c-1.4,0.2-2.9,0.1-4.1,0.8c0,0,0,0,0,0c-1.7,0.2-3.6,0.2-5.2,0.7c-2.2,0.7-4.5,1.6-6.4,2.7
		c-2.9,1.8-6.2,2.8-9.1,4.6c-0.6,0.4-1.2,0.7-2,0.5c0,0,0,0,0,0l0,0c0-0.2,0-0.3,0-0.5c0,0,0,0,0,0c0.3-1,0.6-2,0.9-3
		c0.3-0.9,0.3-1.9,0-2.8c0.3-0.8,0.2-1.5-0.2-2.3c0,0,0,0,0,0c0,0,0,0,0,0c0.1-0.2,0.3-0.5,0.4-0.7c2.1-1,3.6-2.5,4.8-4.2l0,0
		c0,0,0,0,0,0c0.8-0.4,0.9-1.2,1.2-1.9c0,0,0,0,0,0l0,0c0.6-0.7,1.2-1.3,0.5-2.1c-0.3-0.9-0.3-2-1.6-2.4c-1.1-0.4-2.1-0.8-3.2-1
		c-0.9-0.2-1.8,0.1-2.5,0.8c-1.7,1.7-2.3,3.7-2.5,5.8c-0.3,0.6-0.5,1.2,0,1.8c0,0,0,0,0,0c-0.3,1.2,0.4,2,1.2,2.8h0
		c0.2,0.3,0.4,0.6,0.6,0.9c0,0,0,0,0,0c0.2,0.8,0,1.7,0.6,2.4l0,0c0,0,0,0,0,0c-0.3,1.9-0.3,3.8-0.8,5.7c-0.5,0.2-0.8,0.6-0.8,1h0
		c-0.9,0.7-2,1.4-2,2.6c0,0.2,0,0.4-0.1,0.6c-1,0.3-1.8,0.8-2.4,1.1l-4.7,2.8c-1.4,0.8-2.8,1.6-4,2.6c-1,0.8-1.8,1.6-2.6,2.4
		c-0.5,0.4-0.9,0.9-1.4,1.3c-0.2,0.2-0.4,0.3-0.6,0.5c-0.1,0.1-0.2,0.2-0.3,0.2c-0.7,0.6-1.4,1.2-2.2,1.7c-0.2,0.1-0.4,0.1-0.6,0.2
		c-0.1,0-0.1,0.1-0.1,0.2c-0.6,0.4-1.2,0.8-1.9,1.2c-0.2,0.1-0.4,0.2-0.6,0.4c-2.2,1.3-4.5,2.5-6.8,3.7c0.5-1,1-2,1-3.1
		c-0.1,0-0.1-0.1-0.1-0.2c0,0.1,0.1,0.1,0.1,0.2c0.1-0.5,0.3-1,0.4-1.5c0.1-0.5,0.3-1.1,0.1-1.6c-0.5,0.7-1.3,1.2-1.4,2c0,0,0,0,0,0
		c0,0,0,0,0,0c-1.4,2.2-2.8,4.5-4.2,6.7c-0.1,0.1-0.2,0.3-0.2,0.5l0,0c-0.6,0.1-0.7,0.5-0.8,0.9c0,0,0,0,0,0l0,0
		c-0.1,0.2-0.1,0.4-0.2,0.5c0,0,0,0,0,0c0,0,0,0,0,0c-0.1,0.1-0.2,0.2-0.2,0.3c-0.4,0.1-0.6,0.3-0.6,0.6c0,0,0,0,0,0
		c-0.9,0.9-1.8,1.8-2.7,2.7c-0.5,0.2-0.8,0.5-0.8,0.9c0,0,0,0,0,0l0,0c-0.7,0.1-1.1,0.5-1.6,0.8c-1.4,1-2.8,2.1-4.4,3
		c-3.3,2-6.3,4.3-9.5,6.4c-2.3,1.2-4.6,2.4-6.8,3.6c-0.4,0.2-0.3,0.6,0,0.9c0.3,0.3,0.7,0.5,1.1,0.4c0.9-0.1,1.9-0.3,2.6-0.9
		c1-1,2.4-1.4,3.4-2.3c0,0,0,0,0,0c2.4-1,4.2-2.6,6.3-3.9c2.2-1.4,4.3-3.1,6.6-4.5c1.2-0.7,2.2-1.6,3.2-2.4l0.1,0
		c0.4,0.1,0.6-0.1,0.7-0.4c0,0,0,0,0,0c1.2-1,2.4-2,3.5-2.9c0,0,0,0,0,0c0.7-0.3,1.2-0.8,1.6-1.4c0.3-0.1,0.6-0.2,0.7-0.5
		c0,0,0,0,0,0l0,0c0.3,0,0.6-0.2,0.6-0.5c0,0,0,0,0,0c0,0,0,0,0,0l0,0h0l0,0c1.5-1,2.2-2.5,3.6-3.6c0.8-0.3,1.4-0.7,1.9-1.2
		c3.7-2,7.3-4.2,10.4-6.9c0.5-0.4,1-0.9,1.4-1.3c0.8-0.8,1.6-1.6,2.5-2.3c1.2-0.9,2.5-1.7,3.8-2.5l3.2-1.9c0.3,0.1,0.6,0,0.8-0.2
		c0.5-0.4,1-0.8,1.5-1.1c0.7-0.4,1.5-0.7,2.2-0.6l0.2-1.2c0.1-0.2,0.2-0.4,0.2-0.6l0,0c1,0.1,1.8-0.4,2.7-0.8c0,0,0,0,0,0
		c1.1-0.6,1.7-1.7,2.9-2.3c2.1-1,4-2.2,6.1-3.2c2.5-1.3,5.2-2.3,8-3c1.7-0.4,3.4-0.9,5-1.6c1.1,0,2.3,0,3.3-0.5
		c0.7,0.1,1.4,0.3,1.9-0.2c0,0,0,0,0,0l0.1,0c1,0.1,2.1,0.5,3.1,0.1c0,0,0,0,0,0c0.9,0,1.7,0,2.6-0.1c0.4,0.2,0.8,0.5,1.3,0.7
		c1.9,0.9,4,1.8,4.3,4c0.1,0.5,0.8,0.7,1.5,0.7l0,0c0,0.3,0.2,0.5,0.6,0.5c0,0,0,0,0,0l0,0l0,0c0.2,0.5,0.6,0.6,1.1,0.6l0,0
		c0.2,0.1,0.3,0.2,0.5,0.3c0.1,0.3,0.3,0.4,0.6,0.4c0,0,0,0,0,0c0.2,0.1,0.3,0.2,0.5,0.3c0.2,0.2,0.4,0.4,0.7,0.3c0,0,0,0,0,0l0.3,0
		c0,0,0,0,0,0c0.5,0.6,1.1,0.9,1.9,1.1l0.2,0.2l0.3,0c0.5,0.5,1.2,0.6,1.9,0.7c1.3,0.6,2.6,0.4,3.9,0.1c0.3,0.1,0.6,0,0.7-0.3l0,0
		c0.9,0.2,1.7,0.2,2.1-0.6c0,0,0,0,0,0c0.9-1.1,1.9-2.1,1.5-3.5c-0.5-2-1.9-3.2-4.4-3.5l0,0c-4.1-1.9-8.2-1.9-12.2,0
		c-0.2,0-0.5,0-0.7,0c0,0,0,0,0,0c-1.5-0.8-3-1.6-4.5-2.5c-0.1-0.7,0.1-1.2,1.1-1.2c3,0,5.5-0.9,7.5-2.7c1.5-0.9,3.3-1.5,4-3
		c0.7-0.1,1.4-0.1,2.1,0.1c0.6,0.2,1.2,0.3,1.8,0c2.8,0.2,5.5-0.2,7.6-1.9c0,0,0,0,0,0c0,0,0,0,0,0h0c0.5-0.1,0.8-0.5,0.9-0.8
		c1.1-0.7,1.4-1.6,1.9-2.6c0.4-0.9,0.7-1.6,0.2-2.5C148.6,88.1,148,87,146.3,87z M53.7,135.6C53.7,135.6,53.7,135.6,53.7,135.6
		C53.7,135.6,53.7,135.6,53.7,135.6L53.7,135.6C53.7,135.6,53.7,135.6,53.7,135.6z M144.6,90.1C144.6,90.1,144.7,90.1,144.6,90.1
		c0.1,0,0.1,0.1,0.2,0.1C144.7,90.2,144.7,90.2,144.6,90.1z"/>
	<path fill="#B3C5BD" d="M103.6,56.4c2.4-0.8,4-2,4-4.3c0-1.3-0.9-2.3-1.7-3.2c-1.3-1.6-2.8-2.1-4.9-1.1c-0.3,0-0.6,0.1-0.7,0.4
		c0,0,0,0,0,0c-0.2,0-0.3,0.1-0.3,0.3c-0.9,0.5-1,1.3-1.2,2.1c-2.5,2.3-2.5,4.1-0.2,6.5c-0.1,0.3,0,0.6,0.4,0.7c0,0,0,0,0,0
		c0,0,0,0,0,0c0,0.1,0,0.2,0.1,0.3c0,0.2-0.1,0.4-0.1,0.5c0.5,2.2-0.5,3.9-2.9,5c-0.2,0.1-0.3,0.2-0.5,0.3c-0.6,0.4-0.6,0.6,0.4,1.3
		c0,0,0,0,0,0c0.2,0.4,0.6,0.6,1.1,0.7c0.1-0.5,0.2-1.1,0.3-1.6c0,0,0,0,0,0c0,0,0,0,0,0c0.7-0.5,1.4-0.8,1.9-1.6
		c0.9-1.5,1.2-3.1,1.7-4.7l0,0c0.3-0.3,0.6-0.6,0.8-1C102.5,56.8,103.1,56.6,103.6,56.4z"/>
	<path fill="#B3C5BD" d="M120.5,119C120.5,119,120.5,119,120.5,119c0.2-0.7,0.5-1.5-0.1-2.2c-1.2-1.4-2.5-2.7-4.8-2.9
		c-0.9-0.1-1.8-0.3-2.7-0.4c-0.5-0.1-1,0-1.4,0.3h0c-1.5,0.5-3.3,0.5-4.7,1.3c-0.6,0.1-1.1,0.2-1.7,0.3c-0.5-0.2-1-0.2-1.5-0.1
		c-2.1,0.5-4.2,0.9-6.4,0.9c0,0,0,0,0,0c-0.3,0.1-0.4,0.2-0.3,0.5c0.2,0.3,0.4,0.5,0.7,0.8l0,0c0,0.3,0,0.5,0,0.8
		c0.2,2.4,0.7,4.7,0,7.1l0,0c-0.5,0.5-1.1,1-1.6,1.4c0,0,0,0,0,0c0,0,0,0,0,0c-2.2,1.5-3.5,3.5-4.6,5.6c-0.1,0.1-0.2,0.3-0.3,0.4
		c-1.3,1.8-1.4,3.8-1.4,5.8c0,0.7,0.5,1.3,1.1,1.8c0.2,0.2,0.5,0.4,0.8,0.4c1.5-0.1,3.2,0.5,4.5-0.6c1.7-0.9,2.3-2.3,2.8-3.8
		c1-1.3,1.5-2.6,1-4.1c0.3-0.9,0-1.8-0.4-2.7c-0.3-0.8-0.7-1.6-1-2.4c0,0,0,0,0,0c0,0,0,0,0,0c0.1-0.5,0.3-1,0.4-1.5c0,0,0,0,0,0
		c-0.2-2.1,0.2-4.2-0.2-6.3c-0.1-0.5,0.2-1,0.9-1.2c2.3,2.5,2.3,2.5,5,3c0.9,0.6,0.9,1.4,0.7,2.3c-0.2,0.9-0.8,1.8,0,2.7
		c0,0.4-0.1,0.9-0.1,1.3c0,1.2,0.4,2.4-0.3,3.5c0.1,2.5,1.2,4.8,3.4,6.5c2.4,1.8,5.1,1.4,7.8,0.2c0.7-0.1,0.9-0.4,0.9-0.9l0,0l0,0
		l0,0c1.6-1.2,1.9-2.7,1.8-4.5c0-2-0.7-3.8-2.8-4.9c0,0,0,0,0,0c-2-1.9-4.8-2.6-7.6-3.3c-0.2-0.1-0.4-0.2-0.6-0.3c0,0,0,0,0,0
		c0,0,0,0,0,0c0-0.3-0.2-0.4-0.5-0.5c0,0,0,0,0,0c0,0,0,0,0,0c-0.7-1-1.1-2.2-2.6-2.6c0,0,0,0,0,0c-0.4-0.6-1-0.9-1.7-1.1
		c-1.2-0.3-1.9-1-2.7-1.7c0,0,0,0,0,0c0.1-0.2,0.1-0.6,0.3-0.7c1.1-0.3,2.1-0.6,3.3-0.3c0.7,0.2,1.4,0.3,2.1,0.4h0l0.1,0
		c0,0,0,0,0,0c0,0,0,0,0,0c1.1,1.9,3.1,3.1,5.2,4.2c1,1,2.5,1,3.9,1.3c1.6,0.3,3,0.1,4-1.1C120.1,120.9,121.3,120.3,120.5,119
		C120.5,119,120.5,119,120.5,119z M94.1,136c0,0,0.1,0,0.1,0c0,0,0,0.1,0,0.1c0,0,0,0,0.1,0c0,0,0,0-0.1,0c0,0,0,0,0,0c0,0,0,0,0,0
		C94.1,136.1,94.1,136,94.1,136z"/>
	<path fill="#B3C5BD" d="M83.3,67.2C83.3,67.2,83.3,67.2,83.3,67.2C83.3,67.2,83.3,67.2,83.3,67.2L83.3,67.2z"/>
	<path fill="#B3C5BD" d="M83.3,67.2C83.3,67.2,83.3,67.2,83.3,67.2C83.3,67.2,83.3,67.2,83.3,67.2L83.3,67.2z"/>
	<path fill="#B3C5BD" d="M59.5,46.1c-1.8-1.6-3.8-2.9-6.2-3.8c-0.1-0.1-0.2-0.2-0.3-0.2c-1.6-1.1-3.3-1.6-5.3-0.6
		c-0.2,0.1-0.6,0.2-0.9,0.1c-1.1-0.1-1.7,0.4-2.2,1.1c-0.3,0.5-0.9,1-1,1.6c-1.1,1.1-1.2,2.4-0.9,3.8c0,0,0,0,0,0
		c-0.6,2.6,0.7,4.5,3.4,5.8c1.6,0.7,3.2,1.3,5,0.4c3.2-0.5,5.4-2.1,7.4-4.1l0,0c0.4,0,0.6-0.1,0.7-0.4c0.6-0.2,1.2-0.3,1.5-0.9
		c0.5-0.1,0.7-0.5,0.9-0.8c0.4,0,0.8,0,1.2,0.1c0,0,0,0,0,0c0,0,0,0,0,0c1.2,0.2,2.5,0.4,3.7,0.6c0.2,0.1,0.4,0.2,0.6,0.2h0
		c0.4,0.5,1,0.8,1.9,0.7c0,0,0,0,0,0l0,0c1,0.4,1.1,1.2,1.4,1.9c0,0,0,0,0,0c0.1,0.2,0.1,0.4,0.2,0.4c1.8,0.4,2.3,1.7,2.6,3
		c0.1,0.5,0.2,1,0.4,1.5c0,0,0,0,0,0c-0.3,1.4-0.5,2.7-0.8,4.1c0,0,0,0,0,0c-0.4,1.2-0.9,2.3-1.7,3.4c0,0,0,0,0,0c0,0,0,0,0,0
		c-0.3,0.3-0.6,0.5-0.7,0.8c-0.7,1.8-1.6,3.6-2.5,5.3c-1.1,2.2-2,4.4-2.3,6.7c-0.1,0.4-0.1,0.9,0.3,1.2l0,0
		c-0.9,3.1-1.5,6.2-1.6,9.4l0,0c-0.2,0.9-0.5,1.7-0.6,2.6c-0.5,4.2-0.9,8.5-1.3,12.8c-0.2,1.7-0.4,3.5-0.5,5.2
		c-0.6,2.6-1.2,5.1-1.9,7.7c-0.3,1-0.5,2-0.8,3.1c0,0,0,0,0,0c-1.6,2.4-1.9,5-2.5,7.9c0.9-0.7,0.8-1.5,1-2.1
		c0.3-0.7,0.3-1.6,0.8-2.2c0.7-1.1,1-2.3,1.2-3.5c0,0,0,0,0,0c0.3-1,0.5-2,0.8-3c0,0,0,0,0,0c0,0,0,0,0,0c0.1-0.1,0.1-0.3,0.2-0.4
		c0,0,0,0,0,0c0,0,0,0,0,0c0.4-0.3,0.7-0.7,0.8-1.1c1.2-3.7,1.7-7.5,2-11.3c0.1-2.3,0.6-4.5,0.7-6.7c0.2-3,0.9-6,1.4-9c0,0,0,0,0,0
		c0.2-0.8,0.5-1.7,0.7-2.5c0.5-1.9,0.9-3.7,1.4-5.6c0.7-0.8,1.3-1.5,2.6-1.7c1.5-0.3,1.5-0.5,0.9-2.1c0,0,0,0,0,0
		c0.3-1,1.2-1.6,2-2.3c0,0,0,0,0,0c3.4-1.6,6.5-3.7,10-5.2c0.2-0.1,0.3-0.4,0.4-0.6c-3,0.5-5.3,2.2-7.8,3.5c-1,0.5-2.1,1.1-3.1,1.7
		c-0.6,0.6-1.5,0.9-1.8,1.7c-0.3,0-0.6,0.1-0.7,0.4c-0.2,0-0.4,0.1-0.6,0.1c0-0.3-0.2-0.5-0.5-0.6c1.3-2.6,2.6-5.3,3.3-8.1l0,0
		c0.4,0.1,0.6,0,0.8-0.3c0,0,0,0,0,0c1.7-1.1,2.1-2.7,2.3-4.4c0.4-1,0.4-2.2,1.3-3.1c1.1-1.1,1.6-2.5,2.4-3.8
		c0.7-1.1,1.4-2.1,2.1-3.1c2-2.5,3.9-5.1,6-7.5c1.5-1.7,3-3.5,4.3-5.4h0c0.3-0.3,0.6-0.7,0.8-1l0,0c0.8-0.1,1.2-0.6,1.6-1.1
		c1.1-1.2,2.2-2.3,3.2-3.5c0,0,0,0,0,0c2-1.5,4.2-2.8,6.7-3.7c0.1,0,0.2-0.1,0.2-0.2c0,0,0,0,0,0c0.8-0.1,1.6-0.2,2.4-0.3
		c0,0,0,0,0,0c0.1,0.6,0.6,0.6,1.2,0.6c1.5,1.3,3.4,1.5,5.4,1.5c0,0,0,0,0,0c0,0,0,0,0,0c1.5,1.5,3.3,2,5.6,1.4
		c0.7-0.1,1.4-0.2,2-0.3c0.6-0.1,1.2-0.2,1.5-0.7c0,0,0,0,0,0c0,0,0,0,0,0c1-0.3,2-0.6,2.3-1.6c0.3-1,0-2-0.8-2.7
		c-2.4-2.4-7.1-3.1-9.7-2c-1.8,0.8-3.7,1.1-5.5,1.8l-0.2,0.1c-0.4-0.1-0.6,0-0.8,0.2c-0.2,0-0.3,0-0.5,0c-0.9-0.2-1.5,0.1-2.2,0.6
		c0,0,0,0,0,0c0,0,0,0,0,0c-0.4,0.1-0.8,0.1-1.2,0.2c-0.6,0.1-1,0-1.2-0.5c2.5-1.1,3.8-2.9,4.6-5.1h0c0,0,0,0,0,0
		c0.5-0.2,1.1-0.3,1.5-0.7c0,0,0,0,0,0l0,0c1.3-0.9,3-1.1,4.4-1.9c0.3-0.2,0.6-0.3,0.9-0.5c0,0,0,0,0,0c1.8-0.4,3.2-1.4,4.3-2.6h0
		l0,0c0.5-0.2,0.8-0.4,0.9-0.9c0.5-0.4,0.9-0.9,1-1.4c0.7-0.3,0.9-0.9,1-1.5c0.5-1.7,0.2-2.5-1.6-3.2c-1.6-0.6-3.3-1-5-1.5
		c-0.7-0.2-1.2,0-1.7,0.4c-0.6,0.5-1.3,0.9-1.4,1.7h0l0,0c-0.4,0-0.6,0.2-0.7,0.5c0,0,0,0,0,0c-0.2,0.1-0.2,0.2-0.2,0.3
		c-0.4,0.1-0.6,0.3-0.7,0.6c-0.2,0.1-0.2,0.2-0.2,0.3c-0.4,0.1-0.6,0.3-0.6,0.6c-0.2,0.1-0.3,0.2-0.3,0.4c-0.3,0.1-0.5,0.2-0.5,0.5
		c-1.5,1.5-2.4,3.2-2.3,5.2c0,0.8-0.2,1.5-0.3,2.3c-0.1,2.1-0.1,2.1-1.7,4.2c-0.6,0.8-1.3,1.6-1.9,2.3c0,0,0,0,0,0c0,0,0,0,0,0
		c-1.6,1.2-3.3,2.3-4.4,3.9c-0.2,0.2-0.4,0.4-0.6,0.6c0,0,0,0,0,0c0,0,0,0,0,0c-0.1,0.1-0.2,0.3-0.2,0.4c-1,0.3-1.5,1.1-2.2,1.7
		c-0.7,0.7-1.3,1.6-2.4,1.9l0,0c0,0,0,0,0,0c0.1-0.5,0.2-1,0.4-1.5l0,0c0.8-1.1,0.8-2.4,0.5-3.7c-0.6,1.1-0.8,2.3-1.1,3.5
		c-0.4,0.5-1,0.8-1,1.5c-0.4,0.7-0.9,1.5-1.3,2.2c-0.9,1.2-1.8,2.3-2.8,3.5l0,0c0,0,0,0,0,0c-3.3,3.5-5.7,7.5-7.9,11.5c0,0,0,0,0,0
		c-0.5,0.2-0.7,0.6-0.9,1c-0.5,1-1.2,2-2.1,2.9c-0.5,0.5-0.9,0.2-1.2-0.3c0,0,0,0,0,0c0,0,0,0,0,0c0-1.2,0.1-2.5-0.9-3.5
		c-1.1-1.1-0.9-2.2-0.7-3.4c0.4-1.5,1.1-3,1.1-4.5c0.1-0.3,0.2-0.6,0.3-0.8c0.8-0.6,1.6-1.3,2.3-1.9c0.5-0.1,0.8-0.4,0.9-0.8
		c0.3-0.1,0.5-0.2,0.6-0.5l0.1-0.1c0.5-0.1,0.7-0.4,0.9-0.8l0,0c2.1-2.8,1.8-4.3-1-6.2c0,0,0,0,0,0c-1.1-1.2-2.4-1.4-3.9-0.7
		c-0.3,0.1-0.5,0.3-0.8,0.4c0,0,0,0,0,0c-0.2,0.2-0.4,0.3-0.7,0.5c-0.9,0.4-1,1.2-1.2,1.9c0,0,0,0,0,0c-0.5,0.3-0.7,0.6-0.7,1.1
		c-0.9,2-0.6,3.9,1,5.6c0,0.3,0.2,0.5,0.6,0.6c0.1,0.4,0.2,0.8,0.4,1.1c0.1,1.3-0.5,2.4-0.8,3.7c0,0,0,0,0,0l0,0
		c-0.2,0.3-0.3,0.6-0.5,0.8c0,0,0,0,0,0c0,0,0,0,0,0c-1.5-0.4-2.4-1.4-3.2-2.4c-1.5-1.9-2.9-3.8-4.3-5.7c0,0,0,0,0,0
		c-0.5-1.1-0.7-2.1,0.1-3.1c0.1-0.1-0.2-0.4-0.3-0.7l0,0c-0.3-1,0.7-1.6,1.1-2.4c0,0,0,0,0,0c1.6-0.9,2.3-2.2,2.6-3.7
		c0.2-0.9,0.2-1.9,0.3-2.8c-0.3-3.5-1.3-4.7-5-5.7c-0.4-0.1-0.8-0.2-1.2-0.2c0,0,0,0,0,0c-0.1-0.3-0.4-0.4-0.7-0.4
		c-1.1,0.3-2.1,0.6-2.8,1.4l0,0c-0.2,0.2-0.4,0.3-0.6,0.5c-0.2,0.1-0.3,0.2-0.3,0.4c-0.5,0.2-0.7,0.6-0.8,1.1
		c-0.1,0.1-0.2,0.3-0.2,0.5c0,0,0,0,0,0l0,0c0,0,0,0,0,0c0,0,0,0,0,0l0,0c-1.4,1.1-1.4,2.3-0.9,3.7c0,0,0,0,0,0
		c-0.1,0.2-0.1,0.3,0,0.5c-0.2,0.4-0.1,0.8,0.3,1.1c-0.2,0.4-0.1,0.8,0.3,1.2c0.5,1.5,1.5,2.7,2.9,3.7c0.1,0.3,0.3,0.5,0.7,0.5l0,0
		c0.1,0.1,0.3,0.2,0.5,0.2c0,0,0,0,0,0c0,0,0,0,0,0c0.5,0.8,1.5,1.1,2.3,1.5c0.3,1.1,0.7,2.3,1,3.4c0,0,0,0,0,0
		c0.1,1.1,1,1.9,1.8,2.6c1.3,1.2,2.4,2.6,2.8,4.3c-0.9,0.3-1.6-0.1-2.3-0.1h0C63.5,47.1,61.5,46.6,59.5,46.1z M78.1,37.2
		C78.1,37.2,78.1,37.2,78.1,37.2c0,0-0.1-0.1-0.1-0.1C78,37.1,78.1,37.2,78.1,37.2z M75.2,34.9c-0.2-0.2-0.5-0.4-0.7-0.5
		c0,0,0,0,0,0c0,0,0,0,0,0C74.8,34.5,75,34.7,75.2,34.9C75.2,34.8,75.2,34.8,75.2,34.9z M77.5,41.1L77.5,41.1
		c0.2-0.2,0.4-0.3,0.6-0.5l0,0C77.9,40.8,77.7,40.9,77.5,41.1z"/>
	<path fill="#B3C5BD" d="M91.2,65.2c0,0-0.1-0.2-0.1-0.2c-0.7-0.2-1.1,0.2-1.5,0.6c-1.8-0.1-3.4,0.6-5,0.9c-0.4,0.1-0.8,0.5-1.2,0.7
		c2.3,0,4.4-0.3,6.2-1.6l0,0C90.2,65.7,90.8,65.7,91.2,65.2z"/>
	<path fill="#B3C5BD" d="M97.6,67c-0.3,1-0.5,2-0.8,3c-1.8,1-3.1,2.5-4.1,4.1c-0.5,0.8-0.9,1.7-1.4,2.6c-0.8,1.9-0.3,3.6,1.1,5.1
		c0,0,0,0,0,0c1.5,1.4,2.4,1.5,4.5,0.7c2.4-1.8,3.8-3.9,2.3-6.6c0.1-0.4,0-0.8-0.3-1.2c-0.1,0.1-0.2,0.1-0.4,0.2c0,0,0,0,0,0
		c0.1,0,0.3-0.1,0.4-0.1c0.1-0.7,0.2-1.4,0.3-2c0.2-0.4,0.2-0.8-0.2-1.2c0,0,0,0,0,0c0,0,0,0,0,0c0-0.2,0-0.4,0.1-0.5c0,0,0,0,0,0
		c0,0,0,0,0,0c0.4-0.8-1-0.7-0.9-1.4c0.1-0.6,0.1-1.2-0.2-1.7C98,67.5,97.8,67.2,97.6,67c0.1-0.4,0.1-0.8-0.4-1.1
		C97.2,66.3,97.1,66.7,97.6,67z M95.3,78.9C95.3,78.9,95.3,78.9,95.3,78.9L95.1,79C95.2,78.9,95.2,78.9,95.3,78.9
		C95.3,78.9,95.3,78.9,95.3,78.9z M95,79L95,79C95,79,95,79,95,79C95,79,95,79,95,79z"/>
	<path fill="#B3C5BD" d="M57.4,23.2c0.2-0.2,0.4-0.3,0.6-0.5C57.7,22.7,57.5,22.9,57.4,23.2z"/>
	<polygon fill="#B3C5BD" points="94.2,136.1 94.2,136.1 94.2,136.1 94.2,136.1 	"/>
</g>
</svg>
